<svg xmlns="http://www.w3.org/2000/svg" width="19.723" height="19.723" viewBox="0 0 19.723 19.723">
  <path id="Icon_awesome-app-store" data-name="Icon awesome-app-store" d="M10.42,5.052l.362-.624a.812.812,0,0,1,1.408.811L8.71,11.263h2.517a1.114,1.114,0,0,1,.919,1.622H4.77a.811.811,0,0,1,0-1.622H6.837L9.486,6.674,8.659,5.239a.812.812,0,0,1,1.408-.811l.354.624ZM7.291,13.721l-.779,1.352A.812.812,0,1,1,5.1,14.261l.581-1a1.385,1.385,0,0,1,1.606.461Zm6.716-2.453h2.111a.811.811,0,0,1,0,1.622H14.945l.791,1.372a.812.812,0,1,1-1.408.811q-2-3.465-3-5.193a2.24,2.24,0,0,1,.286-2.748q.8,1.372,2.39,4.135ZM10.424.563a9.862,9.862,0,1,0,9.862,9.862A9.86,9.86,0,0,0,10.424.563Zm8.589,9.862a8.589,8.589,0,1,1-8.589-8.589A8.589,8.589,0,0,1,19.013,10.424Z" transform="translate(-0.563 -0.563)"/>
</svg>
