<svg xmlns="http://www.w3.org/2000/svg" width="14.099" height="14.099" viewBox="0 0 14.099 14.099">
  <path id="Icon_awesome-book-reader" data-name="Icon awesome-book-reader" d="M9.693,2.644A2.644,2.644,0,1,0,7.05,5.287,2.644,2.644,0,0,0,9.693,2.644Zm-3.261,4A13.509,13.509,0,0,0,.821,5.289.762.762,0,0,0,0,6.034V12.17a.757.757,0,0,0,.729.745,14.813,14.813,0,0,1,5.316,1.141.383.383,0,0,0,.564-.327V6.955a.366.366,0,0,0-.177-.316Zm6.846-1.351A13.5,13.5,0,0,0,7.667,6.639a.373.373,0,0,0-.177.32v6.768a.384.384,0,0,0,.566.328,14.819,14.819,0,0,1,5.314-1.14.758.758,0,0,0,.729-.745V6.034a.762.762,0,0,0-.821-.746Z"/>
</svg>
