<svg xmlns="http://www.w3.org/2000/svg" width="536.95" height="447.54" viewBox="0 0 536.95 447.54">
  <g id="_01" data-name="01" transform="translate(-491.15 -489.754)">
    <circle id="Ellipse_4" data-name="Ellipse 4" cx="207.358" cy="207.358" r="207.358" transform="translate(548.126 490.254)" fill="none" stroke="#e8623d" stroke-miterlimit="10" stroke-width="1"/>
    <circle id="Ellipse_5" data-name="Ellipse 5" cx="201.723" cy="201.723" r="201.723" transform="translate(553.376 520.714)" fill="none" stroke="#e8623d" stroke-miterlimit="10" stroke-width="3"/>
    <circle id="Ellipse_6" data-name="Ellipse 6" cx="194.211" cy="194.211" r="194.211" transform="translate(567.943 542.096)" fill="none" stroke="#e8623d" stroke-miterlimit="10" stroke-width="6" opacity="0.12"/>
    <circle id="Ellipse_7" data-name="Ellipse 7" cx="172.282" cy="172.282" r="172.282" transform="translate(588.068 579.596)" fill="#e8623d"/>
    <g id="Group_857" data-name="Group 857" transform="translate(545.061 643.421)">
      <g id="Group_853" data-name="Group 853" transform="translate(0 0)">
        <path id="Path_616" data-name="Path 616" d="M1185.031,1376.735h-45.17a176.713,176.713,0,0,0-14.12-121.983h32.033a3.336,3.336,0,0,0,3.336-3.336h0a3.336,3.336,0,0,0-3.336-3.336h-35.625A176.05,176.05,0,0,0,854.417,1201h-54.2a3.336,3.336,0,0,0-3.336,3.336h0a3.336,3.336,0,0,0,3.336,3.336H847.06q-5.612,5.382-10.736,11.245H762.1a3.336,3.336,0,0,0-3.336,3.336h0a3.336,3.336,0,0,0,3.336,3.336h68.678a176.253,176.253,0,0,0-25.393,174.4h-8.787a3.336,3.336,0,0,0-3.336,3.336h0a3.336,3.336,0,0,0,3.336,3.336h11.616q1.819,4.058,3.836,8.006H772.58a3.336,3.336,0,0,0-3.336,3.336h0a3.336,3.336,0,0,0,3.336,3.336h43.057a175.987,175.987,0,0,0,13.8,20.774h278.919a175.846,175.846,0,0,0,23.355-40.406h32.736a3.336,3.336,0,0,0,3.336-3.336h0a3.336,3.336,0,0,0-3.336-3.336H1134.3q2.088-5.723,3.785-11.626h46.945a3.336,3.336,0,0,0,3.336-3.336h0A3.33,3.33,0,0,0,1185.031,1376.735Z" transform="translate(-758.76 -1158.69)" fill="#f9f8f8"/>
        <g id="Group_799" data-name="Group 799" transform="translate(217.07 11.666)">
          <g id="Group_794" data-name="Group 794" transform="translate(0 102.007)">
            <path id="Path_617" data-name="Path 617" d="M2084.534,2554.448H2063.21a2.789,2.789,0,0,1,2.788-2.788h15.748a2.788,2.788,0,0,1,2.788,2.788Z" transform="translate(-2017.492 -2384.712)" fill="#f2f2f2"/>
            <path id="Path_618" data-name="Path 618" d="M2099.5,2139.651H2088.28l3.648-103.941,2.45,1.63Z" transform="translate(-2037.511 -1972.703)" fill="#f2f2f2"/>
            <g id="Group_793" data-name="Group 793" transform="translate(0)">
              <path id="Path_619" data-name="Path 619" d="M2076.654,2554.448H2055.33a2.789,2.789,0,0,1,2.788-2.788h15.748a2.786,2.786,0,0,1,2.788,2.788Z" transform="translate(-2011.199 -2384.712)" fill="#f2f2f2"/>
              <g id="Group_792" data-name="Group 792">
                <g id="Group_791" data-name="Group 791">
                  <path id="Path_620" data-name="Path 620" d="M2108.26,2032.46l53.656,30.978-.586-3.05a2.512,2.512,0,0,0-.931-1.515l-35.053-27.134a2.515,2.515,0,0,0-2.26-.421l-7.033,2.1a2.518,2.518,0,0,1-1.978-.232l-4.674-2.7Z" transform="translate(-2053.466 -1968.535)" fill="#f2f2f2"/>
                  <path id="Path_621" data-name="Path 621" d="M1889.926,2030.49l-53.656,30.978,2.929,1.015a2.539,2.539,0,0,0,1.787-.048L1882,2045.649a2.524,2.524,0,0,0,1.5-1.757l1.694-7.128a2.529,2.529,0,0,1,1.2-1.606l4.668-2.7Z" transform="translate(-1836.27 -1968.534)" fill="#f2f2f2"/>
                  <path id="Path_622" data-name="Path 622" d="M2077.484,1784.906V1722.95l-2.345,2.031a2.516,2.516,0,0,0-.848,1.567l-5.971,43.917a2.533,2.533,0,0,0,.768,2.176l5.331,5.034a2.522,2.522,0,0,1,.792,1.835v5.393h2.274Z" transform="translate(-2021.554 -1722.95)" fill="#f2f2f2"/>
                  <path id="Path_623" data-name="Path 623" d="M2093,2139.651h-10.3l3.646-103.941h3.006Z" transform="translate(-2033.055 -1972.703)" fill="#f2f2f2"/>
                  <circle id="Ellipse_8" data-name="Ellipse 8" cx="2.637" cy="2.637" r="2.637" transform="translate(51.621 65.008) rotate(-76.714)" fill="#f2f2f2"/>
                </g>
              </g>
            </g>
            <circle id="Ellipse_9" data-name="Ellipse 9" cx="2.405" cy="2.405" r="2.405" transform="translate(52.209 60.447)" fill="#f2f2f2"/>
            <path id="Path_624" data-name="Path 624" d="M1837.223,2065.206l51.256-30.41-.046-.036-52.163,30.117Z" transform="translate(-1836.27 -1971.944)" fill="#f2f2f2"/>
            <rect id="Rectangle_25" data-name="Rectangle 25" width="10.274" height="0.675" transform="translate(49.669 166.273)" fill="#f2f2f2"/>
            <path id="Path_625" data-name="Path 625" d="M2110.13,1723.611l.705,60.016.054-.022V1722.95Z" transform="translate(-2054.959 -1722.95)" fill="#f2f2f2"/>
            <path id="Path_626" data-name="Path 626" d="M2167.641,2073.447l-51.963-29.187-.008.058,52.161,30.115Z" transform="translate(-2059.383 -1979.53)" fill="#f2f2f2"/>
          </g>
          <g id="Group_798" data-name="Group 798" transform="translate(29.765)">
            <path id="Path_627" data-name="Path 627" d="M2381.479,2547.812H2347.34a4.463,4.463,0,0,1,4.462-4.462h25.212a4.46,4.46,0,0,1,4.464,4.462Z" transform="translate(-2274.147 -2276.069)" fill="#ececec"/>
            <path id="Path_628" data-name="Path 628" d="M2405.454,1883.726H2387.49l5.838-166.406,3.924,2.609Z" transform="translate(-2306.209 -1616.447)" fill="#ececec"/>
            <g id="Group_797" data-name="Group 797">
              <path id="Path_629" data-name="Path 629" d="M2368.879,2547.812H2334.74a4.463,4.463,0,0,1,4.462-4.462h25.212a4.461,4.461,0,0,1,4.464,4.462Z" transform="translate(-2264.085 -2276.069)" fill="#f2f2f2"/>
              <g id="Group_796" data-name="Group 796">
                <g id="Group_795" data-name="Group 795">
                  <path id="Path_630" data-name="Path 630" d="M2419.47,1712.125l85.9,49.594-1.046-5.441a2.512,2.512,0,0,0-.933-1.517l-57.183-44.266a2.513,2.513,0,0,0-2.262-.421l-12.625,3.773a2.521,2.521,0,0,1-1.98-.232l-8.046-4.646Z" transform="translate(-2331.746 -1609.779)" fill="#e2e2e2"/>
                  <path id="Path_631" data-name="Path 631" d="M2069.92,1708.96l-85.9,49.594,5.236,1.815a2.522,2.522,0,0,0,1.781-.048l68.124-27.879,3.6-15.135,8.987-5.187Z" transform="translate(-1984.02 -1609.771)" fill="#f2f2f2"/>
                  <path id="Path_632" data-name="Path 632" d="M2369.821,1315.789V1216.6l-4.188,3.626a2.529,2.529,0,0,0-.85,1.569l-9.742,71.65a2.531,2.531,0,0,0,.768,2.176l9.575,9.043a2.522,2.522,0,0,1,.792,1.835v9.289Z" transform="translate(-2280.278 -1216.6)" fill="#f2f2f2"/>
                  <path id="Path_633" data-name="Path 633" d="M2395.037,1883.726H2378.55l5.838-166.406h4.811Z" transform="translate(-2299.07 -1616.447)" fill="#f2f2f2"/>
                  <circle id="Ellipse_10" data-name="Ellipse 10" cx="4.223" cy="4.223" r="4.223" transform="translate(82.221 103.154) rotate(-67.5)" fill="#ececec"/>
                </g>
              </g>
            </g>
            <circle id="Ellipse_11" data-name="Ellipse 11" cx="3.85" cy="3.85" r="3.85" transform="translate(82.421 102.705) rotate(-67.5)" fill="#f2f2f2"/>
            <path id="Path_634" data-name="Path 634" d="M1985.553,1764.552l82.061-48.686-.074-.056-83.509,48.214Z" transform="translate(-1984.028 -1615.242)" fill="#ececec"/>
            <rect id="Rectangle_26" data-name="Rectangle 26" width="16.449" height="1.082" transform="translate(79.516 266.199)" fill="#ececec"/>
            <path id="Path_635" data-name="Path 635" d="M2422.47,1217.658l1.128,96.084.087-.036V1216.6Z" transform="translate(-2334.142 -1216.6)" fill="#ececec"/>
            <path id="Path_636" data-name="Path 636" d="M2514.535,1777.744l-83.193-46.724-.012.093,83.509,48.214Z" transform="translate(-2341.217 -1627.387)" fill="#ececec"/>
          </g>
        </g>
        <g id="Group_802" data-name="Group 802" transform="translate(60.761 71.772)">
          <g id="Group_800" data-name="Group 800" transform="translate(0 45.094)">
            <path id="Path_637" data-name="Path 637" d="M1080.354,1824.773h0a20.043,20.043,0,0,1-19.984-19.984v-46a20.043,20.043,0,0,1,19.984-19.984h0a20.043,20.043,0,0,1,19.984,19.984v46A20.043,20.043,0,0,1,1080.354,1824.773Z" transform="translate(-1060.37 -1738.8)" fill="#cecece"/>
            <path id="Path_638" data-name="Path 638" d="M1156.34,2027.827h-2.18V1893.15a1.089,1.089,0,0,1,1.09-1.09h0a1.089,1.089,0,0,1,1.09,1.09v134.677Z" transform="translate(-1135.266 -1861.185)" fill="#e4e4e4"/>
            <path id="Path_639" data-name="Path 639" d="M1132.879,1944.289l-6.064-10.5a1.09,1.09,0,0,0-1.888,1.09l6.064,10.5Z" transform="translate(-1111.805 -1894.07)" fill="#e4e4e4"/>
            <path id="Path_640" data-name="Path 640" d="M1156.048,2002.312l6.064-10.5a1.09,1.09,0,1,0-1.888-1.09l-6.064,10.5Z" transform="translate(-1135.266 -1939.534)" fill="#e4e4e4"/>
          </g>
          <g id="Group_801" data-name="Group 801" transform="translate(45.64)">
            <path id="Path_641" data-name="Path 641" d="M1312.3,1624.137h0a25.454,25.454,0,0,1-25.379-25.379v-58.418a25.454,25.454,0,0,1,25.379-25.379h0a25.454,25.454,0,0,1,25.379,25.379v58.418A25.454,25.454,0,0,1,1312.3,1624.137Z" transform="translate(-1286.92 -1514.96)" fill="#cecece"/>
            <path id="Path_642" data-name="Path 642" d="M1408.8,1882h-2.768V1710.974a1.384,1.384,0,0,1,1.384-1.384h0a1.384,1.384,0,0,1,1.384,1.384Z" transform="translate(-1382.035 -1670.381)" fill="#e4e4e4"/>
            <path id="Path_643" data-name="Path 643" d="M1379.006,1775.919l-7.7-13.334a1.385,1.385,0,0,0-2.4,1.384l7.7,13.334Z" transform="translate(-1352.243 -1712.146)" fill="#e4e4e4"/>
            <path id="Path_644" data-name="Path 644" d="M1408.419,1849.6l7.7-13.334a1.385,1.385,0,0,0-2.4-1.384l-7.7,13.334Z" transform="translate(-1382.027 -1769.878)" fill="#e4e4e4"/>
          </g>
        </g>
        <g id="Group_810" data-name="Group 810" transform="translate(69.27 245.805)">
          <g id="Group_805" data-name="Group 805">
            <g id="Group_803" data-name="Group 803" transform="translate(0 17.216)">
              <path id="Path_645" data-name="Path 645" d="M1126.41,2477.223c1.164-1.094,1.7-2.345,1.237-3.223-.568-1.09-2.47-1.255-4.5-.49.1-.264.2-.538.288-.818,1.082-3.455.463-6.725-1.38-7.3-1.8-.562-4.1,1.64-5.214,4.952-.925-3.8-3.3-6.471-5.339-5.991-1.918.451-2.859,3.54-2.24,7.077-2.81-1.241-5.52-1.142-6.384.354-.894,1.549.5,4.063,3.153,5.9a2.924,2.924,0,0,0-2.242,2.16c-.145,1.189.872,2.359,2.488,3.082a1.16,1.16,0,0,0-.06.687c.169.717,1.076,1.158,2.262,1.2v0h15.182v-.012a.666.666,0,0,0,.584-.361.527.527,0,0,0-.048-.431,1.729,1.729,0,0,0,1.577-.908,1.461,1.461,0,0,0-.278-1.334c2.049-.137,3.624-1.035,3.675-2.192C1129.216,2478.564,1128.07,2477.644,1126.41,2477.223Z" transform="translate(-1102.608 -2464.294)" fill="#e4e4e4"/>
            </g>
            <g id="Group_804" data-name="Group 804" transform="translate(11.589)">
              <path id="Path_646" data-name="Path 646" d="M1203.906,2402.607c2.141-2.013,3.121-4.311,2.276-5.929-1.046-2-4.543-2.309-8.278-.9q.287-.731.53-1.5c1.99-6.354.854-12.367-2.538-13.429-3.306-1.035-7.535,3.016-9.589,9.106-1.7-6.979-6.07-11.9-9.817-11.018-3.527.83-5.256,6.509-4.12,13.016-5.167-2.281-10.153-2.1-11.741.651-1.644,2.849.917,7.474,5.8,10.843-2.315.776-3.9,2.194-4.122,3.973-.268,2.186,1.606,4.339,4.577,5.669a2.1,2.1,0,0,0-.111,1.263c.31,1.318,1.978,2.132,4.162,2.216v.008h27.92v-.024a1.228,1.228,0,0,0,1.076-.661.971.971,0,0,0-.091-.794c1.45-.141,2.542-.715,2.9-1.672a2.686,2.686,0,0,0-.51-2.454c3.769-.252,6.666-1.9,6.759-4.029C1209.067,2405.071,1206.954,2403.381,1203.906,2402.607Z" transform="translate(-1160.132 -2378.835)" fill="#f2f2f2"/>
            </g>
          </g>
          <g id="Group_806" data-name="Group 806" transform="translate(238.532 4.04)">
            <path id="Path_647" data-name="Path 647" d="M2291.176,2420.061c-1.908-1.793-2.778-3.838-2.027-5.278.931-1.783,4.045-2.057,7.369-.8-.169-.433-.328-.88-.471-1.34-1.773-5.659-.759-11.012,2.26-11.958,2.943-.923,6.708,2.686,8.538,8.109,1.515-6.215,5.405-10.594,8.741-9.811,3.141.739,4.68,5.8,3.669,11.592,4.6-2.031,9.041-1.869,10.455.58,1.465,2.536-.816,6.654-5.163,9.656,2.061.691,3.477,1.952,3.67,3.538.238,1.946-1.43,3.864-4.075,5.048a1.873,1.873,0,0,1,.1,1.124c-.276,1.173-1.763,1.9-3.707,1.974v.006h-24.862v-.022a1.09,1.09,0,0,1-.957-.588.868.868,0,0,1,.081-.707,2.83,2.83,0,0,1-2.583-1.489,2.4,2.4,0,0,1,.455-2.186c-3.356-.224-5.935-1.7-6.018-3.588C2286.579,2422.254,2288.461,2420.75,2291.176,2420.061Z" transform="translate(-2286.649 -2398.89)" fill="#eaeaea"/>
          </g>
          <g id="Group_807" data-name="Group 807" transform="translate(269.597 24.085)">
            <path id="Path_648" data-name="Path 648" d="M2442.689,2506.945c-.771-.725-1.122-1.551-.82-2.134.377-.721,1.634-.83,2.978-.324-.069-.175-.133-.355-.191-.542-.715-2.287-.306-4.45.913-4.831,1.188-.373,2.712,1.086,3.449,3.276.612-2.51,2.184-4.281,3.531-3.965,1.269.3,1.892,2.341,1.483,4.684,1.859-.82,3.652-.756,4.225.234.592,1.025-.33,2.689-2.085,3.9a1.937,1.937,0,0,1,1.483,1.43c.1.786-.578,1.561-1.646,2.041a.775.775,0,0,1,.04.455c-.111.473-.711.768-1.5.8v0H2444.5v-.008a.442.442,0,0,1-.387-.238.358.358,0,0,1,.032-.286,1.144,1.144,0,0,1-1.043-.6.969.969,0,0,1,.183-.882c-1.356-.091-2.4-.685-2.431-1.45C2440.831,2507.833,2441.593,2507.223,2442.689,2506.945Z" transform="translate(-2440.857 -2498.389)" fill="#e4e4e4"/>
          </g>
          <g id="Group_808" data-name="Group 808" transform="translate(146.285 5.977)">
            <path id="Path_649" data-name="Path 649" d="M1833.013,2428.458c-1.8-1.69-2.619-3.618-1.91-4.976.878-1.68,3.814-1.938,6.946-.756-.161-.409-.308-.83-.445-1.261-1.67-5.334-.717-10.379,2.131-11.271,2.774-.868,6.324,2.53,8.048,7.643,1.428-5.858,5.095-9.986,8.24-9.247,2.959.7,4.412,5.463,3.459,10.925,4.337-1.914,8.522-1.763,9.855.546,1.38,2.391-.77,6.273-4.867,9.1,1.942.651,3.278,1.841,3.461,3.334.224,1.833-1.348,3.642-3.842,4.758a1.774,1.774,0,0,1,.095,1.06c-.26,1.106-1.662,1.789-3.493,1.859v.006h-23.433v-.02a1.029,1.029,0,0,1-.9-.556.812.812,0,0,1,.077-.667,2.67,2.67,0,0,1-2.436-1.4,2.256,2.256,0,0,1,.429-2.059c-3.165-.211-5.594-1.6-5.673-3.382C1828.682,2430.527,1830.452,2429.107,1833.013,2428.458Z" transform="translate(-1828.75 -2408.505)" fill="#f2f2f2"/>
          </g>
          <g id="Group_809" data-name="Group 809" transform="translate(174.146 19.711)">
            <path id="Path_650" data-name="Path 650" d="M1969.464,2487.981c-1.019-.957-1.483-2.049-1.082-2.818.5-.953,2.16-1.1,3.934-.427-.091-.232-.175-.469-.252-.715-.947-3.022-.4-5.879,1.207-6.384,1.571-.491,3.582,1.435,4.559,4.329.81-3.318,2.887-5.657,4.668-5.238,1.676.395,2.5,3.094,1.958,6.189,2.456-1.084,4.827-1,5.582.31.782,1.354-.435,3.553-2.756,5.155a2.56,2.56,0,0,1,1.96,1.89c.127,1.039-.764,2.063-2.176,2.7a1,1,0,0,1,.052.6c-.147.626-.941,1.013-1.978,1.053v0h-13.274v-.012a.585.585,0,0,1-.512-.314.469.469,0,0,1,.042-.377,1.515,1.515,0,0,1-1.38-.8,1.282,1.282,0,0,1,.242-1.167c-1.793-.121-3.169-.9-3.213-1.916C1967.01,2489.153,1968.015,2488.35,1969.464,2487.981Z" transform="translate(-1967.045 -2476.679)" fill="#e4e4e4"/>
          </g>
        </g>
        <g id="Group_811" data-name="Group 811" transform="translate(149.162 71.835)">
          <path id="Path_651" data-name="Path 651" d="M2006.108,1734.833a1.574,1.574,0,0,0-.469.071c.006-.079.008-.157.008-.236a3.308,3.308,0,0,0-6.491-.9,2.143,2.143,0,1,0-.582,4.206c.038,0,.075,0,.113,0v0h7.424a1.571,1.571,0,1,0,0-3.143Z" transform="translate(-1896.256 -1687.827)" fill="#f2f2f2"/>
          <path id="Path_652" data-name="Path 652" d="M1609.594,1526.159a4.755,4.755,0,0,0-2.446.675,7.2,7.2,0,0,0-7.921-5.53,10.208,10.208,0,0,0-19.523,4.172c0,.06,0,.121,0,.179a5.267,5.267,0,1,0-2.25,10.028h32.136a4.762,4.762,0,0,0,0-9.525Z" transform="translate(-1557.482 -1515.27)" fill="#f2f2f2"/>
          <path id="Path_653" data-name="Path 653" d="M1502.311,2103.962a3.125,3.125,0,0,1,1.61.445,4.749,4.749,0,0,1,4.625-3.675,5.192,5.192,0,0,1,.586.036,6.715,6.715,0,0,1,12.843,2.746c0,.04,0,.078,0,.119a3.463,3.463,0,1,1,1.481,6.594h-21.141a3.133,3.133,0,0,1,0-6.265Z" transform="translate(-1499.18 -1979.648)" fill="#f2f2f2"/>
        </g>
        <g id="Group_852" data-name="Group 852" transform="translate(65.836 236.513)">
          <g id="Group_819" data-name="Group 819" transform="translate(290.17 27.997)">
            <g id="Group_816" data-name="Group 816" transform="translate(0.633)">
              <g id="Group_815" data-name="Group 815">
                <g id="Group_814" data-name="Group 814">
                  <g id="Group_813" data-name="Group 813">
                    <g id="Group_812" data-name="Group 812">
                      <path id="Path_654" data-name="Path 654" d="M2534.993,2471.875l-.051.189a5.7,5.7,0,0,1-.457,1.118,4.1,4.1,0,0,1-4.027,2.377,5.634,5.634,0,0,1-1.2-.141l-.189-.048.051-.189a5.7,5.7,0,0,1,.457-1.118,4.1,4.1,0,0,1,4.027-2.377,5.624,5.624,0,0,1,1.2.141Zm-5.435,3.207a4.011,4.011,0,1,0,1.857-2.5A4.783,4.783,0,0,0,2529.558,2475.083Z" transform="translate(-2529.07 -2471.685)" fill="#e4e4e4"/>
                    </g>
                  </g>
                </g>
              </g>
            </g>
            <g id="Group_818" data-name="Group 818" transform="translate(0 1.577)">
              <g id="Group_817" data-name="Group 817">
                <path id="Path_655" data-name="Path 655" d="M2529.764,2482.688a2.1,2.1,0,1,1,2.734-2.7A5.69,5.69,0,0,1,2529.764,2482.688Z" transform="translate(-2525.93 -2479.514)" fill="#f2f2f2"/>
              </g>
            </g>
          </g>
          <g id="Group_827" data-name="Group 827" transform="translate(283.526 6.396)">
            <g id="Group_824" data-name="Group 824" transform="translate(0.508)">
              <g id="Group_823" data-name="Group 823">
                <g id="Group_822" data-name="Group 822">
                  <g id="Group_821" data-name="Group 821">
                    <g id="Group_820" data-name="Group 820">
                      <path id="Path_656" data-name="Path 656" d="M2501.56,2364.46l0,.244a7.033,7.033,0,0,1-.214,1.487,5.1,5.1,0,0,1-4.14,4.087,7.115,7.115,0,0,1-1.491.193h-.244l0-.244a7.014,7.014,0,0,1,.214-1.487,5.1,5.1,0,0,1,4.14-4.087,7.115,7.115,0,0,1,1.491-.193Zm-5.586,5.516a4.992,4.992,0,1,0,1.485-3.582A5.941,5.941,0,0,0,2495.974,2369.976Z" transform="translate(-2495.47 -2364.46)" fill="#e4e4e4"/>
                    </g>
                  </g>
                </g>
              </g>
            </g>
            <g id="Group_826" data-name="Group 826" transform="translate(0 2.163)">
              <g id="Group_825" data-name="Group 825">
                <path id="Path_657" data-name="Path 657" d="M2497.644,2379.363a2.615,2.615,0,1,1,2.482-4.083A7.078,7.078,0,0,1,2497.644,2379.363Z" transform="translate(-2492.95 -2375.198)" fill="#f2f2f2"/>
              </g>
            </g>
          </g>
          <g id="Group_835" data-name="Group 835" transform="translate(37.191)">
            <g id="Group_832" data-name="Group 832">
              <g id="Group_831" data-name="Group 831">
                <g id="Group_830" data-name="Group 830">
                  <g id="Group_829" data-name="Group 829">
                    <g id="Group_828" data-name="Group 828">
                      <path id="Path_658" data-name="Path 658" d="M1271.544,2332.71l.155.133a6.07,6.07,0,0,1,.836.931,4.253,4.253,0,0,1,.395,4.831,6.092,6.092,0,0,1-.673,1.056l-.131.155-.155-.133a6.07,6.07,0,0,1-.836-.931,4.253,4.253,0,0,1-.395-4.831,6.1,6.1,0,0,1,.673-1.056Zm.534,6.519a4.156,4.156,0,1,0-1.493-2.865A4.966,4.966,0,0,0,1272.078,2339.229Z" transform="translate(-1270.17 -2332.71)" fill="#e4e4e4"/>
                    </g>
                  </g>
                </g>
              </g>
            </g>
            <g id="Group_834" data-name="Group 834" transform="translate(1.158 0.832)">
              <g id="Group_833" data-name="Group 833">
                <path id="Path_659" data-name="Path 659" d="M1279.158,2340.609a2.178,2.178,0,1,1-1.279-3.769A5.894,5.894,0,0,1,1279.158,2340.609Z" transform="translate(-1275.921 -2336.84)" fill="#f2f2f2"/>
              </g>
            </g>
          </g>
          <g id="Group_843" data-name="Group 843" transform="translate(0 22.591)">
            <g id="Group_840" data-name="Group 840" transform="translate(0 0.507)">
              <g id="Group_839" data-name="Group 839">
                <g id="Group_838" data-name="Group 838">
                  <g id="Group_837" data-name="Group 837">
                    <g id="Group_836" data-name="Group 836">
                      <path id="Path_660" data-name="Path 660" d="M1085.56,2447.384l.171-.012a4.94,4.94,0,0,1,1.05.071,3.572,3.572,0,0,1,3.074,2.675,4.844,4.844,0,0,1,.214,1.03l.012.171-.171.012a4.958,4.958,0,0,1-1.05-.071,3.572,3.572,0,0,1-3.074-2.675,4.85,4.85,0,0,1-.214-1.03Zm4.148,3.61a3.493,3.493,0,1,0-2.581-.846A4.181,4.181,0,0,0,1089.708,2450.994Z" transform="translate(-1085.56 -2447.367)" fill="#e4e4e4"/>
                    </g>
                  </g>
                </g>
              </g>
            </g>
            <g id="Group_842" data-name="Group 842" transform="translate(1.521)">
              <g id="Group_841" data-name="Group 841">
                <path id="Path_661" data-name="Path 661" d="M1096.109,2446.367a1.831,1.831,0,1,1-2.984-1.517A4.948,4.948,0,0,1,1096.109,2446.367Z" transform="translate(-1093.112 -2444.85)" fill="#f2f2f2"/>
              </g>
            </g>
          </g>
          <g id="Group_851" data-name="Group 851" transform="translate(238.982 17.394)">
            <g id="Group_848" data-name="Group 848" transform="translate(0 0.514)">
              <g id="Group_847" data-name="Group 847">
                <g id="Group_846" data-name="Group 846">
                  <g id="Group_845" data-name="Group 845">
                    <g id="Group_844" data-name="Group 844">
                      <path id="Path_662" data-name="Path 662" d="M2271.84,2421.6l.191,0a5.563,5.563,0,0,1,1.175.127,4.01,4.01,0,0,1,3.324,3.139,5.686,5.686,0,0,1,.193,1.164l.006.191-.191,0a5.563,5.563,0,0,1-1.175-.127,4.008,4.008,0,0,1-3.324-3.141,5.685,5.685,0,0,1-.193-1.165Zm4.486,4.237a3.924,3.924,0,1,0-2.854-1.068A4.681,4.681,0,0,0,2276.326,2425.84Z" transform="translate(-2271.84 -2421.599)" fill="#e4e4e4"/>
                    </g>
                  </g>
                </g>
              </g>
            </g>
            <g id="Group_850" data-name="Group 850" transform="translate(1.71)">
              <g id="Group_849" data-name="Group 849">
                <path id="Path_663" data-name="Path 663" d="M2283.639,2420.887a2.055,2.055,0,1,1-3.276-1.837A5.554,5.554,0,0,1,2283.639,2420.887Z" transform="translate(-2280.326 -2419.05)" fill="#f2f2f2"/>
              </g>
            </g>
          </g>
        </g>
      </g>
      <g id="Group_856" data-name="Group 856" transform="translate(9.261 136.087)">
        <g id="Group_854" data-name="Group 854" transform="translate(101.497 37.879)">
          <path id="Path_664" data-name="Path 664" d="M1384.175,1934.853H1318.42l1.2-4.331,2.337-8.458,1.416-5.121,2.085-7.549,4.021-14.556,2.087-7.549,14.663-53.08h10.144l5.375,19.453,9.289,33.627,2.085,7.549,4.021,14.556,2.087,7.549,3.751,13.579Z" transform="translate(-1304.966 -1834.21)" fill="#e8623d"/>
          <path id="Path_665" data-name="Path 665" d="M1384.183,2045.522H1318.43l1.2-4.332,2.336-8.458c45.821-2.707,39.79-68.4,39.79-68.4l21.235,76.859Z" transform="translate(-1304.975 -1944.879)" fill="#bd5531"/>
          <rect id="Rectangle_27" data-name="Rectangle 27" width="92.661" height="8.811" transform="translate(0 100.643)" fill="#e8623d"/>
          <path id="Path_666" data-name="Path 666" d="M1384.175,2482.831H1318.42l1.2-4.331h63.361Z" transform="translate(-1304.966 -2382.187)" fill="#f9b94f"/>
          <path id="Path_667" data-name="Path 667" d="M1486.535,2239.79s-1.377,29.06-34.765,35.708l44.623-.024Z" transform="translate(-1418.382 -2179.161)" fill="#bd5531"/>
          <path id="Path_668" data-name="Path 668" d="M1436.014,2196.839H1392.37l2.087-7.549h39.472Z" transform="translate(-1367.862 -2136.21)" fill="#fff"/>
          <path id="Path_669" data-name="Path 669" d="M1407.379,2344.709H1351.52l2.085-7.549h51.687Z" transform="translate(-1333.118 -2261.976)" fill="#fff"/>
          <path id="Path_670" data-name="Path 670" d="M1376.2,2507.47s-12.282,9.273-57.774,8.809h79.207v-8.809Z" transform="translate(-1304.975 -2406.827)" fill="#bd5531"/>
        </g>
        <g id="Group_855" data-name="Group 855" transform="translate(0 147.348)">
          <path id="Path_671" data-name="Path 671" d="M1284.028,2569.7H1120.777a2.036,2.036,0,0,1-2.037-2.037h0a2.036,2.036,0,0,1,2.037-2.037h163.251a2.036,2.036,0,0,1,2.037,2.037h0A2.036,2.036,0,0,1,1284.028,2569.7Z" transform="translate(-1055.481 -2565.63)" fill="#c6c6c6"/>
          <path id="Path_672" data-name="Path 672" d="M1031.263,2569.7h-26.387a2.036,2.036,0,0,1-2.037-2.037h0a2.036,2.036,0,0,1,2.037-2.037h26.387a2.036,2.036,0,0,1,2.037,2.037h0A2.035,2.035,0,0,1,1031.263,2569.7Z" transform="translate(-962.93 -2565.63)" fill="#c6c6c6"/>
          <path id="Path_673" data-name="Path 673" d="M834.493,2569.7H806.767a2.036,2.036,0,0,1-2.037-2.037h0a2.036,2.036,0,0,1,2.037-2.037h27.726a2.036,2.036,0,0,1,2.037,2.037h0A2.036,2.036,0,0,1,834.493,2569.7Z" transform="translate(-804.73 -2565.63)" fill="#c6c6c6"/>
          <path id="Path_674" data-name="Path 674" d="M2015.975,2569.7h-22.748a2.036,2.036,0,0,1-2.037-2.037h0a2.036,2.036,0,0,1,2.037-2.037h22.75a2.036,2.036,0,0,1,2.037,2.037h0A2.04,2.04,0,0,1,2015.975,2569.7Z" transform="translate(-1752.171 -2565.63)" fill="#c6c6c6"/>
          <path id="Path_675" data-name="Path 675" d="M2185.615,2569.7h-17.289a2.036,2.036,0,0,1-2.037-2.037h0a2.036,2.036,0,0,1,2.037-2.037h17.289a2.036,2.036,0,0,1,2.037,2.037h0A2.038,2.038,0,0,1,2185.615,2569.7Z" transform="translate(-1891.996 -2565.63)" fill="#c6c6c6"/>
        </g>
      </g>
    </g>
    <path id="Path_676" data-name="Path 676" d="M2835.195,2563.554a.454.454,0,0,0-.28-.209.463.463,0,0,0-.346.048l-1.519.9-.9-1.519a.457.457,0,0,0-.836.119.461.461,0,0,0,.048.346l.9,1.519-1.519.9a.454.454,0,0,0-.209.28.461.461,0,0,0,.048.346.453.453,0,0,0,.28.209.461.461,0,0,0,.346-.048l1.519-.9.9,1.519a.459.459,0,0,0,.483.216.457.457,0,0,0,.3-.681l-.9-1.519,1.519-.9A.457.457,0,0,0,2835.195,2563.554Z" transform="translate(-1868.09 -1636.311)" fill="#e8623d"/>
    <path id="Path_677" data-name="Path 677" d="M1080.325,633.2a.454.454,0,0,0-.28-.21.462.462,0,0,0-.347.048l-1.519.9-.9-1.519a.457.457,0,0,0-.836.119.462.462,0,0,0,.048.346l.9,1.519-1.519.9a.453.453,0,0,0-.209.28.462.462,0,0,0,.048.346.453.453,0,0,0,.28.209.462.462,0,0,0,.346-.048l1.519-.9.9,1.519a.459.459,0,0,0,.484.216.476.476,0,0,0,.143-.054.457.457,0,0,0,.161-.627l-.9-1.519,1.519-.9A.461.461,0,0,0,1080.325,633.2Z" transform="translate(-466.748 -94.841)" fill="#e8623d"/>
    <path id="Path_678" data-name="Path 678" d="M2864.943,2601.645a1.992,1.992,0,1,1,1.992-1.992A2,2,0,0,1,2864.943,2601.645Zm0-2.921a.928.928,0,1,0,.929.927A.93.93,0,0,0,2864.943,2598.724Z" transform="translate(-1893.988 -1664.351)" fill="#e8623d"/>
    <path id="Path_679" data-name="Path 679" d="M614.011,1085.978a1.258,1.258,0,0,0-1.722-.443L608.112,1088l-2.468-4.176a1.258,1.258,0,0,0-2.166,1.279l2.468,4.176-4.176,2.468a1.258,1.258,0,0,0,1.279,2.166l4.176-2.468,2.468,4.176a1.26,1.26,0,0,0,1.328.594,1.232,1.232,0,0,0,.395-.151,1.258,1.258,0,0,0,.443-1.722l-2.468-4.176,4.176-2.468A1.258,1.258,0,0,0,614.011,1085.978Z" transform="translate(-87.842 -454.993)" fill="#e8623d"/>
    <path id="Path_680" data-name="Path 680" d="M695.8,1190.733a5.482,5.482,0,1,1,5.482-5.482A5.489,5.489,0,0,1,695.8,1190.733Zm0-8.034a2.552,2.552,0,1,0,2.552,2.552A2.556,2.556,0,0,0,695.8,1182.7Z" transform="translate(-159.046 -532.102)" fill="#e8623d"/>
    <path id="Path_681" data-name="Path 681" d="M2576.145,570.906a.687.687,0,0,0-.427-.32.7.7,0,0,0-.53.075l-2.317,1.368-1.368-2.317a.688.688,0,0,0-.427-.32.7.7,0,0,0-.53.075.688.688,0,0,0-.32.427.7.7,0,0,0,.074.53l1.368,2.317-2.317,1.368a.686.686,0,0,0-.32.427.7.7,0,0,0,.074.53.688.688,0,0,0,.427.32.7.7,0,0,0,.53-.075l2.317-1.368,1.368,2.317a.7.7,0,0,0,.737.33.67.67,0,0,0,.219-.085.7.7,0,0,0,.246-.957l-1.368-2.317,2.317-1.368A.7.7,0,0,0,2576.145,570.906Z" transform="translate(-1659.263 -44.67)" fill="#e8623d"/>
    <path id="Path_682" data-name="Path 682" d="M2493.182,599.243a5.482,5.482,0,1,1,5.481-5.482A5.489,5.489,0,0,1,2493.182,599.243Zm0-8.034a2.552,2.552,0,1,0,2.552,2.552A2.556,2.556,0,0,0,2493.182,591.209Z" transform="translate(-1594.334 -59.771)" fill="#e8623d"/>
    <path id="Path_683" data-name="Path 683" d="M1865.632,2746.845a1.992,1.992,0,1,1,1.992-1.992A2,2,0,0,1,1865.632,2746.845Zm0-2.919a.928.928,0,1,0,.929.927A.93.93,0,0,0,1865.632,2743.926Z" transform="translate(-1075.319 -2222.146)" fill="#e8623d"/>
    <path id="Path_684" data-name="Path 684" d="M2814.747,1201.054a5.427,5.427,0,1,1,5.427-5.427A5.433,5.433,0,0,1,2814.747,1201.054Zm0-7.955a2.526,2.526,0,1,0,2.526,2.526A2.529,2.529,0,0,0,2814.747,1193.1Z" transform="translate(-1851.162 -540.431)" fill="#e8623d"/>
    <path id="Path_685" data-name="Path 685" d="M2961.262,1682.925a1.992,1.992,0,1,1,1.992-1.992A2,2,0,0,1,2961.262,1682.925Zm0-2.921a.929.929,0,1,0,.927.929A.93.93,0,0,0,2961.262,1680Z" transform="translate(-1970.904 -930.712)" fill="#e8623d"/>
    <path id="Path_686" data-name="Path 686" d="M1020.912,674.9a1.992,1.992,0,1,1,1.992-1.992A2,2,0,0,1,1020.912,674.9Zm0-2.921a.929.929,0,1,0,.929.929A.93.93,0,0,0,1020.912,671.984Z" transform="translate(-421.448 -125.763)" fill="#e8623d"/>
    <path id="Path_687" data-name="Path 687" d="M3133.444,1949.106a.457.457,0,0,0-.209.612l.771,1.585-1.585.772a.456.456,0,0,0,.05.842.446.446,0,0,0,.349-.022l1.585-.771.771,1.585a.458.458,0,0,0,.262.232.446.446,0,0,0,.349-.022.458.458,0,0,0,.232-.262.447.447,0,0,0-.022-.348l-.772-1.585,1.585-.772a.455.455,0,0,0,.254-.463.473.473,0,0,0-.042-.147.458.458,0,0,0-.613-.212l-1.585.772-.771-1.585A.453.453,0,0,0,3133.444,1949.106Z" transform="translate(-2108.968 -1146.415)" fill="#e8623d"/>
    <path id="Path_688" data-name="Path 688" d="M2987.673,2121.785a1.992,1.992,0,1,1,1.992-1.992A2,2,0,0,1,2987.673,2121.785Zm0-2.921a.929.929,0,1,0,.929.929A.93.93,0,0,0,2987.673,2118.864Z" transform="translate(-1991.994 -1281.161)" fill="#e8623d"/>
    <path id="Path_689" data-name="Path 689" d="M1732.955,2275.024a.457.457,0,0,0-.022.647l1.207,1.285-1.285,1.207a.457.457,0,0,0-.022.647.448.448,0,0,0,.318.145.461.461,0,0,0,.328-.123l1.285-1.207,1.207,1.285a.457.457,0,1,0,.669-.625l-1.207-1.285,1.285-1.207a.457.457,0,0,0,.1-.518.474.474,0,0,0-.085-.129.458.458,0,0,0-.647-.02l-1.285,1.207-1.207-1.285A.454.454,0,0,0,1732.955,2275.024Z" transform="translate(-991.44 -1406.613)" fill="#dedede"/>
    <path id="Path_690" data-name="Path 690" d="M1823.522,2368.505a1.992,1.992,0,1,1,1.992-1.992A2,2,0,0,1,1823.522,2368.505Zm0-2.921a.929.929,0,1,0,.929.929A.93.93,0,0,0,1823.522,2365.584Z" transform="translate(-1062.368 -1478.178)" fill="#dedede"/>
    <g id="Group_860" data-name="Group 860" transform="translate(749.113 724.356)">
      <g id="Group_858" data-name="Group 858" transform="translate(0 109.243)">
        <path id="Path_691" data-name="Path 691" d="M1798.187,2309.481a.405.405,0,0,1-.022-.81c1.338-.074,2.692-.209,4.023-.4a.406.406,0,1,1,.115.8c-1.356.191-2.732.326-4.092.4Zm-5.705-.018h-.026c-1.362-.084-2.738-.229-4.088-.431a.406.406,0,0,1,.119-.8c1.328.2,2.679.34,4.019.423a.406.406,0,0,1-.024.812Zm15.357-1.507a.405.405,0,0,1-.1-.8c1.3-.34,2.6-.741,3.864-1.188a.405.405,0,1,1,.272.763c-1.285.455-2.607.862-3.928,1.209A.483.483,0,0,1,1807.839,2307.956Zm-25-.095a.383.383,0,0,1-.107-.014c-1.315-.358-2.635-.78-3.916-1.251a.405.405,0,0,1,.278-.761c1.261.461,2.557.876,3.852,1.229a.406.406,0,0,1-.107.8Zm34.147-3.328a.406.406,0,0,1-.181-.77c1.2-.6,2.4-1.251,3.542-1.946a.406.406,0,0,1,.421.7c-1.166.707-2.379,1.374-3.6,1.978A.4.4,0,0,1,1816.989,2304.533Zm-43.265-.187a.4.4,0,0,1-.183-.044c-1.217-.617-2.423-1.293-3.586-2.011a.406.406,0,1,1,.425-.691c1.142.705,2.329,1.372,3.525,1.978a.405.405,0,0,1-.181.768Zm51.53-5.014a.41.41,0,0,1-.32-.155.4.4,0,0,1,.071-.57c1.058-.826,2.093-1.708,3.076-2.623a.406.406,0,0,1,.552.6c-1,.929-2.053,1.827-3.129,2.667A.416.416,0,0,1,1825.255,2299.332Zm-59.756-.26a.4.4,0,0,1-.252-.088c-1.07-.848-2.115-1.753-3.11-2.687a.406.406,0,1,1,.556-.592c.977.918,2.006,1.809,3.058,2.643a.407.407,0,0,1-.252.725Zm66.8-6.5a.406.406,0,0,1-.308-.669c.87-1.023,1.706-2.095,2.488-3.187a.406.406,0,1,1,.661.471c-.794,1.11-1.646,2.2-2.53,3.241A.416.416,0,0,1,1832.3,2292.567Zm-73.8-.306a.4.4,0,0,1-.31-.145c-.878-1.048-1.72-2.144-2.506-3.26a.406.406,0,0,1,.665-.467c.772,1.1,1.6,2.176,2.464,3.205a.408.408,0,0,1-.05.572A.419.419,0,0,1,1758.5,2292.261Zm79.351-7.736a.4.4,0,0,1-.355-.6c.647-1.176,1.253-2.4,1.8-3.62a.406.406,0,1,1,.741.331c-.556,1.247-1.171,2.486-1.829,3.68A.409.409,0,0,1,1837.849,2284.525Zm-84.837-.348a.4.4,0,0,1-.357-.214c-.647-1.2-1.251-2.446-1.793-3.7a.406.406,0,1,1,.745-.322c.534,1.231,1.126,2.456,1.763,3.636a.406.406,0,0,1-.165.55A.417.417,0,0,1,1753.013,2284.176Zm88.662-8.645a.416.416,0,0,1-.121-.018.407.407,0,0,1-.268-.508c.4-1.283.745-2.6,1.033-3.908a.406.406,0,0,1,.794.173c-.292,1.334-.647,2.669-1.052,3.975A.4.4,0,0,1,1841.675,2275.532Zm-92.4-.385a.4.4,0,0,1-.389-.29c-.391-1.3-.729-2.645-1.011-3.983a.405.405,0,0,1,.794-.165c.276,1.318.61,2.635,1,3.918a.407.407,0,0,1-.272.506A.465.465,0,0,1,1749.28,2275.147Zm94.328-9.2a.247.247,0,0,1-.04,0,.405.405,0,0,1-.365-.443c.129-1.336.2-2.693.22-4.035a.406.406,0,0,1,.812.01c-.016,1.366-.091,2.746-.224,4.106A.406.406,0,0,1,1843.607,2265.951Zm-96.177-.4a.4.4,0,0,1-.4-.369c-.123-1.362-.189-2.744-.2-4.108a.4.4,0,0,1,.4-.407h0a.4.4,0,0,1,.405.4c.008,1.342.073,2.7.193,4.039a.406.406,0,0,1-.367.441A.225.225,0,0,0,1747.43,2265.554Zm96.126-9.374a.406.406,0,0,1-.4-.363c-.143-1.332-.342-2.677-.6-4l-.01-.052a.405.405,0,1,1,.8-.155l.01.052c.258,1.344.463,2.714.606,4.067a.406.406,0,0,1-.361.447A.294.294,0,0,1,1843.557,2256.18Zm-96.014-.4a.368.368,0,0,1-.046,0,.405.405,0,0,1-.357-.449c.155-1.356.369-2.724.639-4.061a.406.406,0,1,1,.8.159c-.264,1.315-.475,2.659-.629,3.993A.407.407,0,0,1,1747.543,2255.779Zm93.995-9.212a.407.407,0,0,1-.387-.282c-.407-1.281-.874-2.558-1.386-3.8a.406.406,0,0,1,.749-.31c.522,1.259,1,2.559,1.41,3.862a.405.405,0,0,1-.264.51A.429.429,0,0,1,1841.538,2246.567Zm-91.908-.334a.4.4,0,0,1-.127-.02.4.4,0,0,1-.258-.512c.425-1.3.913-2.591,1.447-3.848a.406.406,0,1,1,.747.316c-.526,1.237-1,2.51-1.422,3.783A.407.407,0,0,1,1749.63,2246.232Zm88.018-8.626a.407.407,0,0,1-.355-.207c-.657-1.171-1.372-2.327-2.127-3.437a.406.406,0,0,1,.671-.457c.768,1.13,1.495,2.307,2.164,3.5a.406.406,0,0,1-.155.552A.367.367,0,0,1,1837.648,2237.606Zm-84.047-.3a.411.411,0,0,1-.2-.054.406.406,0,0,1-.151-.554c.677-1.185,1.414-2.355,2.188-3.479a.406.406,0,0,1,.669.459c-.761,1.106-1.487,2.256-2.152,3.423A.4.4,0,0,1,1753.6,2237.3Zm78.425-7.684a.4.4,0,0,1-.306-.139c-.88-1.013-1.815-2-2.778-2.937a.406.406,0,0,1,.566-.582c.979.953,1.93,1.956,2.824,2.988a.4.4,0,0,1-.306.671Zm-72.745-.266a.4.4,0,0,1-.3-.673c.9-1.025,1.857-2.025,2.841-2.971a.406.406,0,1,1,.562.586c-.967.931-1.908,1.914-2.794,2.921A.4.4,0,0,1,1759.28,2229.354Zm65.628-6.425a.4.4,0,0,1-.246-.084c-1.066-.816-2.18-1.6-3.31-2.321a.405.405,0,0,1,.437-.683c1.15.735,2.282,1.531,3.366,2.361a.406.406,0,0,1-.248.727Zm-58.472-.224a.406.406,0,0,1-.246-.729c1.09-.824,2.226-1.61,3.382-2.337a.406.406,0,1,1,.433.687c-1.136.715-2.254,1.489-3.324,2.3A.426.426,0,0,1,1766.436,2222.706Zm50.156-4.907a.4.4,0,0,1-.177-.041c-1.209-.586-2.456-1.128-3.709-1.612a.4.4,0,1,1,.29-.755c1.273.491,2.542,1.042,3.771,1.638a.405.405,0,0,1-.175.77Zm-41.8-.161a.405.405,0,0,1-.173-.771c1.233-.584,2.506-1.124,3.785-1.6a.405.405,0,1,1,.284.76c-1.257.471-2.51,1-3.721,1.577A.418.418,0,0,1,1774.788,2217.637Zm32.626-3.2a.442.442,0,0,1-.1-.012c-1.3-.331-2.633-.611-3.957-.83a.406.406,0,0,1,.133-.8c1.346.224,2.7.508,4.023.844a.406.406,0,0,1-.1.8Zm-23.421-.074a.4.4,0,0,1-.095-.8c.806-.2,1.63-.377,2.45-.536.524-.1,1.056-.193,1.582-.278a.4.4,0,1,1,.127.8c-.518.083-1.039.173-1.555.272-.806.155-1.616.332-2.409.526A.347.347,0,0,1,1783.992,2214.366Zm13.753-1.358h-.018c-.711-.032-1.43-.048-2.141-.048-.63,0-1.269.012-1.9.038a.405.405,0,0,1-.032-.81c.643-.026,1.291-.038,1.934-.038.723,0,1.455.016,2.178.048a.405.405,0,0,1-.018.81Z" transform="translate(-1746.83 -2212.15)" fill="#dedede"/>
      </g>
      <g id="Group_859" data-name="Group 859" transform="translate(106.842)">
        <path id="Path_692" data-name="Path 692" d="M2367.5,1839.606c-.234.014-.468.03-.7.042a.406.406,0,0,1-.048-.81h0c1.326-.075,2.669-.183,3.993-.32a.405.405,0,1,1,.085.806C2369.724,1839.441,2368.6,1839.534,2367.5,1839.606Zm-6.326.173a.148.148,0,0,1-.03,0c-1.342-.014-2.7-.06-4.039-.137a.406.406,0,1,1,.048-.81c1.325.077,2.671.123,4,.135a.4.4,0,0,1,.4.409A.41.41,0,0,1,2361.172,1839.779Zm15.22-1.217a.405.405,0,0,1-.093-.8c1.311-.224,2.635-.481,3.93-.766a.405.405,0,0,1,.175.792c-1.308.288-2.643.548-3.967.774A.317.317,0,0,0,2376.392,1838.563Zm-24.847.568a.484.484,0,0,1-.076,0c-1.332-.167-2.677-.369-4-.6a.406.406,0,0,1,.139-.8c1.307.228,2.639.427,3.958.594a.4.4,0,0,1-.024.806Zm34.254-2.728a.406.406,0,0,1-.139-.8c1.275-.371,2.561-.778,3.818-1.207a.406.406,0,1,1,.264.768c-1.269.435-2.564.846-3.854,1.219A.362.362,0,0,1,2385.8,1836.4Zm-43.752.975a.424.424,0,0,1-.123-.01c-1.3-.318-2.619-.675-3.91-1.056a.405.405,0,0,1,.23-.778c1.277.379,2.581.731,3.872,1.046a.405.405,0,0,1-.068.8Zm52.85-4.192a.406.406,0,0,1-.183-.78c1.225-.514,2.456-1.066,3.652-1.638a.4.4,0,1,1,.348.731c-1.211.578-2.452,1.134-3.688,1.654A.324.324,0,0,1,2394.9,1833.186Zm-62.089,1.36a.407.407,0,0,1-.167-.024c-1.259-.467-2.524-.971-3.761-1.5a.405.405,0,0,1,.318-.745c1.225.522,2.478,1.019,3.725,1.483a.4.4,0,0,1-.115.784Zm70.751-5.6a.4.4,0,0,1-.226-.757c1.156-.651,2.311-1.338,3.435-2.041a.406.406,0,1,1,.431.689c-1.134.711-2.3,1.4-3.467,2.061A.459.459,0,0,1,2403.559,1828.949Zm-79.6,1.729a.406.406,0,0,1-.21-.042c-1.2-.606-2.4-1.251-3.564-1.914a.406.406,0,0,1,.4-.707c1.156.657,2.343,1.3,3.53,1.9a.4.4,0,0,1,.177.546A.4.4,0,0,1,2323.956,1830.678Zm87.718-6.928a.406.406,0,0,1-.264-.733c1.074-.778,2.146-1.594,3.181-2.423a.406.406,0,1,1,.508.633c-1.046.836-2.127,1.66-3.211,2.446A.4.4,0,0,1,2411.673,1823.75Zm-96.066,2.079a.4.4,0,0,1-.25-.067c-1.12-.739-2.238-1.515-3.322-2.3a.405.405,0,0,1,.477-.655c1.074.784,2.18,1.551,3.29,2.282a.406.406,0,0,1,.115.562A.4.4,0,0,1,2315.607,1825.829Zm103.538-8.173a.4.4,0,0,1-.3-.7c.979-.9,1.95-1.827,2.887-2.77a.406.406,0,1,1,.576.572c-.945.951-1.926,1.892-2.915,2.8A.4.4,0,0,1,2419.145,1817.656Zm-111.28,2.409a.408.408,0,0,1-.286-.093c-1.029-.86-2.051-1.757-3.038-2.665a.4.4,0,0,1,.548-.6c.977.9,1.99,1.787,3.008,2.641a.406.406,0,0,1,.05.572A.411.411,0,0,1,2307.865,1820.065Zm118.017-9.317a.41.41,0,0,1-.292-.1.405.405,0,0,1-.04-.572c.872-1,1.733-2.039,2.557-3.082a.406.406,0,1,1,.636.5c-.832,1.052-1.7,2.1-2.581,3.111A.4.4,0,0,1,2425.882,1810.748Zm-125.053,2.716a.4.4,0,0,1-.32-.125c-.925-.971-1.837-1.978-2.714-2.992a.406.406,0,1,1,.615-.53c.868,1,1.773,2,2.687,2.963a.407.407,0,0,1-.014.574A.418.418,0,0,1,2300.828,1813.463Zm130.964-10.345a.4.4,0,0,1-.256-.071.4.4,0,0,1-.1-.564c.753-1.1,1.491-2.224,2.19-3.352a.405.405,0,1,1,.689.427c-.707,1.14-1.45,2.278-2.212,3.385A.391.391,0,0,1,2431.792,1803.119Zm-137.2,2.992a.406.406,0,0,1-.351-.161c-.806-1.07-1.6-2.172-2.355-3.28a.406.406,0,0,1,.671-.457c.747,1.1,1.533,2.188,2.331,3.248a.407.407,0,0,1-.079.568A.415.415,0,0,1,2294.589,1806.11Zm142.213-11.243a.41.41,0,0,1-.216-.046.405.405,0,0,1-.167-.548c.625-1.175,1.229-2.381,1.8-3.582a.406.406,0,1,1,.733.346c-.572,1.213-1.183,2.43-1.813,3.616A.417.417,0,0,1,2436.8,1794.867ZM2289.23,1798.1a.406.406,0,0,1-.377-.2c-.679-1.152-1.34-2.339-1.962-3.523a.406.406,0,0,1,.717-.379c.616,1.175,1.271,2.347,1.944,3.489a.408.408,0,0,1-.143.556A.39.39,0,0,1,2289.23,1798.1Zm151.611-12a.371.371,0,0,1-.173-.028.407.407,0,0,1-.229-.526c.488-1.239.951-2.506,1.376-3.765a.405.405,0,1,1,.768.26c-.431,1.271-.9,2.55-1.39,3.8A.4.4,0,0,1,2440.842,1786.1Zm-156.017,3.425a.406.406,0,0,1-.4-.24c-.544-1.227-1.063-2.482-1.547-3.735a.405.405,0,0,1,.756-.292c.479,1.239,1,2.484,1.533,3.7a.406.406,0,0,1-.208.536A.451.451,0,0,1,2284.825,1789.52Zm159.031-12.6a.489.489,0,0,1-.131-.012.408.408,0,0,1-.288-.5c.343-1.287.657-2.6.937-3.9a.406.406,0,1,1,.794.169c-.282,1.313-.6,2.639-.945,3.938A.41.41,0,0,1,2443.855,1776.915Zm-162.425,3.572a.405.405,0,0,1-.413-.284c-.4-1.279-.772-2.587-1.11-3.886a.406.406,0,1,1,.786-.205c.334,1.287.705,2.581,1.1,3.85a.405.405,0,0,1-.266.508A.434.434,0,0,1,2281.43,1780.487Zm164.363-13.034a.408.408,0,0,1-.427-.463c.191-1.313.353-2.651.481-3.975a.406.406,0,1,1,.808.079c-.129,1.336-.292,2.685-.485,4.013A.411.411,0,0,1,2445.793,1767.453Zm-166.7,3.672a.408.408,0,0,1-.425-.328c-.25-1.316-.474-2.657-.663-3.987a.406.406,0,1,1,.8-.115c.188,1.318.409,2.647.657,3.951a.4.4,0,0,1-.322.473A.214.214,0,0,1,2279.089,1771.125Zm167.542-13.286a.236.236,0,0,1-.038,0,.4.4,0,0,1-.393-.417c.038-1.328.046-2.675.022-4a.406.406,0,0,1,.812-.014c.024,1.342.016,2.7-.022,4.041A.411.411,0,0,1,2446.632,1757.839Zm-168.812,3.717a.408.408,0,0,1-.431-.375c-.024-.316-.046-.633-.067-.947-.066-1.026-.115-2.065-.143-3.088a.406.406,0,0,1,.812-.022c.028,1.015.076,2.045.143,3.06.02.312.042.625.066.939a.406.406,0,0,1-.375.435A.007.007,0,0,0,2277.82,1761.556Zm168.546-13.365a.408.408,0,0,1-.431-.371c-.111-1.322-.256-2.661-.431-3.983l-.016-.129a.406.406,0,0,1,.8-.107l.016.131c.175,1.332.322,2.685.435,4.019a.407.407,0,0,1-.371.439Zm-168.727,3.717a.29.29,0,0,1-.042,0,.407.407,0,0,1-.391-.421c.05-1.342.135-2.7.252-4.035a.405.405,0,0,1,.808.07c-.115,1.324-.2,2.667-.248,3.995A.406.406,0,0,1,2277.639,1751.909Zm167.351-13.4a.406.406,0,0,1-.423-.324c-.262-1.3-.558-2.617-.88-3.9a.405.405,0,0,1,.786-.2c.326,1.3.625,2.627.888,3.943a.406.406,0,0,1-.318.477Zm-166.43,3.793a.437.437,0,0,1-.089,0,.406.406,0,0,1-.339-.463c.206-1.33.445-2.671.715-3.989a.406.406,0,1,1,.8.163c-.266,1.305-.5,2.635-.707,3.951A.407.407,0,0,1,2278.56,1742.3Zm163.995-13.131a.4.4,0,0,1-.411-.28c-.409-1.265-.852-2.536-1.322-3.779a.4.4,0,1,1,.757-.286c.474,1.255.921,2.538,1.334,3.816a.4.4,0,0,1-.262.51A.317.317,0,0,1,2442.554,1729.17Zm-161.972,3.679a.425.425,0,0,1-.133-.014.407.407,0,0,1-.284-.5c.357-1.3.75-2.6,1.167-3.878a.406.406,0,1,1,.771.252c-.415,1.265-.8,2.556-1.156,3.84A.4.4,0,0,1,2280.582,1732.849Zm158.485-12.677a.4.4,0,0,1-.395-.238c-.55-1.209-1.138-2.422-1.747-3.6a.405.405,0,0,1,.721-.371c.615,1.193,1.207,2.417,1.763,3.638a.407.407,0,0,1-.2.538A.384.384,0,0,1,2439.067,1720.171Zm-155.39,3.523a.42.42,0,0,1-.177-.028.4.4,0,0,1-.224-.528c.5-1.245,1.042-2.5,1.6-3.717a.406.406,0,1,1,.737.339c-.556,1.209-1.09,2.448-1.588,3.681A.409.409,0,0,1,2283.677,1723.695Zm150.9-12.055a.406.406,0,0,1-.375-.2c-.685-1.136-1.406-2.271-2.143-3.372a.405.405,0,0,1,.673-.451c.745,1.114,1.473,2.258,2.164,3.4a.4.4,0,0,1-.139.556A.364.364,0,0,1,2434.574,1711.64Zm-146.782,3.318a.406.406,0,0,1-.383-.6c.641-1.179,1.318-2.359,2.014-3.507a.406.406,0,1,1,.7.421c-.689,1.138-1.36,2.307-1.994,3.475A.407.407,0,0,1,2287.792,1714.958Zm141.343-11.276a.408.408,0,0,1-.349-.157c-.81-1.052-1.658-2.1-2.516-3.108a.406.406,0,0,1,.619-.526c.866,1.021,1.722,2.077,2.54,3.139a.406.406,0,0,1-.294.653Zm-136.26,3.066a.4.4,0,0,1-.357-.637c.77-1.1,1.575-2.194,2.4-3.255a.405.405,0,0,1,.641.5c-.814,1.052-1.612,2.135-2.375,3.223A.4.4,0,0,1,2292.875,1706.748Zm129.947-10.357a.4.4,0,0,1-.318-.123c-.925-.953-1.886-1.9-2.855-2.8a.406.406,0,0,1,.556-.592c.979.917,1.948,1.87,2.883,2.83a.407.407,0,0,1-.008.574A.414.414,0,0,1,2422.822,1696.391Zm-123.97,2.78a.4.4,0,0,1-.328-.673c.888-1,1.815-2,2.75-2.961a.406.406,0,1,1,.582.566c-.927.951-1.843,1.938-2.724,2.933A.416.416,0,0,1,2298.852,1699.172Zm116.866-9.309a.417.417,0,0,1-.284-.091c-1.028-.842-2.089-1.67-3.157-2.464a.407.407,0,0,1,.486-.653c1.078.8,2.149,1.638,3.187,2.488a.4.4,0,0,1,.056.57A.411.411,0,0,1,2415.718,1689.862Zm-110.071,2.462a.41.41,0,0,1-.328-.133.4.4,0,0,1,.03-.572c1-.9,2.029-1.781,3.066-2.629a.405.405,0,1,1,.512.629c-1.027.84-2.049,1.716-3.036,2.6A.4.4,0,0,1,2305.647,1692.324Zm102.269-8.147a.39.39,0,0,1-.246-.064c-1.116-.721-2.266-1.424-3.417-2.091a.405.405,0,0,1,.407-.7c1.16.673,2.321,1.384,3.449,2.111a.406.406,0,0,1,.121.56A.4.4,0,0,1,2407.916,1684.177Zm-94.742,2.117a.406.406,0,0,1-.262-.735c1.092-.776,2.216-1.537,3.344-2.26a.405.405,0,1,1,.437.683c-1.116.717-2.23,1.469-3.312,2.238A.383.383,0,0,1,2313.174,1686.295Zm86.346-6.882a.412.412,0,0,1-.205-.04c-1.193-.59-2.416-1.158-3.634-1.69a.406.406,0,1,1,.324-.743c1.231.538,2.466,1.112,3.668,1.706a.405.405,0,0,1-.153.768Zm-78.185,1.755a.405.405,0,0,1-.221-.759c1.174-.647,2.381-1.275,3.586-1.865a.4.4,0,1,1,.357.727c-1.193.584-2.387,1.207-3.552,1.847A.409.409,0,0,1,2321.334,1681.167Zm69.295-5.532a.413.413,0,0,1-.163-.022c-1.253-.449-2.532-.874-3.805-1.265a.405.405,0,0,1,.236-.776c1.285.393,2.577.822,3.842,1.277a.405.405,0,0,1,.244.52A.4.4,0,0,1,2390.629,1675.635Zm-60.59,1.368a.406.406,0,0,1-.179-.782c1.241-.508,2.512-.993,3.777-1.44a.406.406,0,1,1,.27.766c-1.253.443-2.512.925-3.741,1.426A.34.34,0,0,1,2330.039,1677Zm51.323-4.106a.4.4,0,0,1-.119-.01c-1.3-.3-2.619-.578-3.928-.82a.405.405,0,0,1,.145-.8c1.322.244,2.657.522,3.967.828a.4.4,0,0,1,.3.488A.4.4,0,0,1,2381.362,1672.9Zm-42.2.969a.406.406,0,0,1-.137-.8c1.289-.363,2.607-.7,3.916-1a.405.405,0,1,1,.181.79c-1.3.3-2.6.631-3.878.991A.381.381,0,0,1,2339.165,1673.867Zm32.682-2.625a.283.283,0,0,1-.073,0c-1.32-.151-2.661-.274-3.987-.363a.4.4,0,0,1,.054-.808c1.34.089,2.694.212,4.025.365a.406.406,0,0,1-.02.808Zm-23.258.55a.406.406,0,0,1-.091-.806c.826-.133,1.666-.256,2.5-.367.5-.067,1.007-.129,1.507-.185a.406.406,0,1,1,.093.806c-.5.057-1,.119-1.493.183-.824.109-1.656.232-2.474.363A.307.307,0,0,1,2348.589,1671.792Zm13.623-1.1h-.026c-1.328,0-2.673.032-4,.1a.407.407,0,0,1-.046-.812h.006c1.342-.064,2.7-.1,4.041-.1a.407.407,0,0,1,.028.812Z" transform="translate(-2277.179 -1669.88)" fill="#dedede"/>
      </g>
    </g>
    <g id="Group_863" data-name="Group 863" transform="translate(816.106 758.055)">
      <g id="Group_861" data-name="Group 861" transform="translate(0 0)">
        <path id="Path_693" data-name="Path 693" d="M2237.4,1766.5v139.544h-.365l-10.566-10.28-10.564,10.28h-1.1l-10.566-10.28-10.566,10.28h-1.086l-10.546-10.26-10.546,10.26h-1.08l-10.558-10.272-10.558,10.272h-1.114l-10.558-10.272-10.558,10.272h-1.1l-10.538-10.252-10.538,10.252h-.7V1727.72h94.424Z" transform="translate(-2104.19 -1727.72)" fill="#e2e2e2"/>
        <path id="Path_694" data-name="Path 694" d="M2611.684,1766.5H2572.9V1727.72Z" transform="translate(-2478.476 -1727.72)" fill="#dedede"/>
      </g>
      <g id="Group_862" data-name="Group 862" transform="translate(16.431 73.279)">
        <path id="Path_695" data-name="Path 695" d="M2205.166,2129.569v-5.218h-14.084a5.8,5.8,0,0,1-4-1.207,4.2,4.2,0,0,1-1.334-3.282,3.179,3.179,0,0,1,.2-1.08,5.607,5.607,0,0,1,.588-1.15c.262-.4.534-.79.814-1.164s.626-.832,1.037-1.374l14.869-19.892a22.8,22.8,0,0,1,2.4-2.849,3.186,3.186,0,0,1,2.258-.884q4.264,0,4.265,4.881v21.717h1.207a8.528,8.528,0,0,1,3.465.588,2.526,2.526,0,0,1,1.305,2.581,2.685,2.685,0,0,1-1.066,2.371,5.613,5.613,0,0,1-3.2.743h-1.712v5.218a4.661,4.661,0,0,1-.955,3.213,3.573,3.573,0,0,1-5.091-.028A4.651,4.651,0,0,1,2205.166,2129.569Zm-12.065-11.5h12.065v-16.3Z" transform="translate(-2185.75 -2091.47)" fill="#bd5531"/>
        <path id="Path_696" data-name="Path 696" d="M2393.862,2113.83a47.988,47.988,0,0,1-.562,7.911,18.387,18.387,0,0,1-2.077,6,13.771,13.771,0,0,1-4.938,5.107,13.411,13.411,0,0,1-14.378-.618,14.67,14.67,0,0,1-5.093-6.678,24.855,24.855,0,0,1-1.277-5.149,42.714,42.714,0,0,1-.407-6.1,58.466,58.466,0,0,1,.449-7.631,25.236,25.236,0,0,1,1.4-5.836,12.549,12.549,0,0,1,12.343-8.276,14.047,14.047,0,0,1,5.246.941,11.95,11.95,0,0,1,4.138,2.75,15.681,15.681,0,0,1,3.016,4.474Q2393.864,2105.358,2393.862,2113.83Zm-7.687-.562a46.8,46.8,0,0,0-.616-8.4,10.324,10.324,0,0,0-2.077-4.938,5.088,5.088,0,0,0-4.041-1.67,5.192,5.192,0,0,0-5.149,3.731q-1.444,3.732-1.444,11.5a49.541,49.541,0,0,0,.616,8.643,10.853,10.853,0,0,0,2.077,5.093,5.42,5.42,0,0,0,8-.068,11.137,11.137,0,0,0,2.049-5.135A52.3,52.3,0,0,0,2386.174,2113.268Z" transform="translate(-2328.993 -2092.341)" fill="#bd5531"/>
        <path id="Path_697" data-name="Path 697" d="M2544.146,2129.569v-5.218h-14.084a5.8,5.8,0,0,1-4-1.207,4.205,4.205,0,0,1-1.333-3.282,3.184,3.184,0,0,1,.2-1.08,5.608,5.608,0,0,1,.588-1.15c.262-.4.534-.79.814-1.164s.627-.832,1.038-1.374l14.869-19.892a22.8,22.8,0,0,1,2.4-2.849,3.186,3.186,0,0,1,2.258-.884q4.264,0,4.265,4.881v21.717h1.207a8.528,8.528,0,0,1,3.465.588,2.526,2.526,0,0,1,1.305,2.581,2.686,2.686,0,0,1-1.066,2.371,5.613,5.613,0,0,1-3.2.743h-1.712v5.218a4.662,4.662,0,0,1-.955,3.213,3.573,3.573,0,0,1-5.091-.028A4.661,4.661,0,0,1,2544.146,2129.569Zm-12.063-11.5h12.065v-16.3Z" transform="translate(-2456.441 -2091.47)" fill="#bd5531"/>
      </g>
    </g>
    <g id="Group_867" data-name="Group 867" transform="translate(780.722 842.573)">
      <g id="Group_866" data-name="Group 866" transform="translate(0 0)">
        <path id="Path_698" data-name="Path 698" d="M2275.874,2662.456h0a4.7,4.7,0,0,1-6.644,0l-28.526-28.528-3.624-3.624a23.424,23.424,0,0,0,6.644-6.644l32.152,32.152A4.7,4.7,0,0,1,2275.874,2662.456Z" transform="translate(-2195.925 -2582.505)" fill="#9c9c9c"/>
        <path id="Path_699" data-name="Path 699" d="M2250.894,2630.83l7.434,7.434a23.422,23.422,0,0,1-6.644,6.644h0l-3.81-3.81-3.624-3.624A23.452,23.452,0,0,0,2250.894,2630.83Z" transform="translate(-2201.65 -2588.23)" fill="#5e5e5e"/>
        <g id="Group_865" data-name="Group 865">
          <path id="Path_700" data-name="Path 700" d="M2089.441,2446.488a28.339,28.339,0,0,0-56.651,1.221,28.521,28.521,0,0,0,.179,3.205,28.1,28.1,0,0,0,2.712,9.277h0a28.438,28.438,0,0,0,8.644,10.337c.592.437,1.2.852,1.831,1.243a28.355,28.355,0,0,0,31.411-.981h0a28.456,28.456,0,0,0,6.644-6.644h0a28.2,28.2,0,0,0,5.252-16.441C2089.467,2447.3,2089.457,2446.893,2089.441,2446.488Zm-28.312,24.519a23.3,23.3,0,1,1,23.3-23.3q0,.532-.024,1.058a23.277,23.277,0,0,1-23.274,22.239Z" transform="translate(-2032.79 -2419.37)" fill="#b8b8b8"/>
          <g id="Group_864" data-name="Group 864" transform="translate(8.522 8.524)">
            <path id="Path_701" data-name="Path 701" d="M2077.266,2484.058a2.177,2.177,0,0,1-2.176-2.176,20.2,20.2,0,0,1,20.2-20.2,2.176,2.176,0,1,1,0,4.351,15.854,15.854,0,0,0-15.853,15.853A2.172,2.172,0,0,1,2077.266,2484.058Z" transform="translate(-2075.09 -2461.68)" fill="#fff"/>
          </g>
        </g>
      </g>
    </g>
    <g id="Group_870" data-name="Group 870" transform="translate(491.15 670.579)">
      <g id="Group_869" data-name="Group 869" transform="translate(0)">
        <g id="Group_868" data-name="Group 868">
          <rect id="Rectangle_28" data-name="Rectangle 28" width="12.057" height="121.345" transform="translate(62.971 139.006)" fill="#cecece"/>
          <rect id="Rectangle_29" data-name="Rectangle 29" width="12.105" height="4.196" transform="translate(62.923 139.053)" fill="#f9f8f8"/>
          <path id="Path_702" data-name="Path 702" d="M630.738,1334.383v57.82l-40.885,40.883H532.035L491.15,1392.2v-57.82l40.885-40.883h57.818Z" transform="translate(-491.15 -1293.5)" fill="#e8623d"/>
          <path id="Path_703" data-name="Path 703" d="M684.369,1408.512v57.82l-40.885,40.883H585.666L558.31,1479.86c102.811,15.151,103.876-93.53,103.876-93.53Z" transform="translate(-544.78 -1367.629)" fill="#bd5531"/>
          <path id="Path_704" data-name="Path 704" d="M792.8,1639.94s-19.654,72.981-98.7,69.794h57.818l40.883-40.883V1639.94Z" transform="translate(-653.215 -1570.148)" fill="#bd5531"/>
          <path id="Path_705" data-name="Path 705" d="M650.85,1364.081v52.2L613.94,1453.19h-52.2L524.83,1416.28v-52.2l36.911-36.911h52.2Z" transform="translate(-518.045 -1320.387)" fill="none" stroke="#fff" stroke-miterlimit="10" stroke-width="12"/>
          <rect id="Rectangle_30" data-name="Rectangle 30" width="4.841" height="120.893" transform="translate(70.187 139.457)" fill="#f9f8f8"/>
        </g>
      </g>
      <text id="" transform="translate(37.794 78.171)" fill="#fff" font-size="24" font-family="Montserrat-Arabic-Regular, Montserrat-Arabic"><tspan x="0" y="0"></tspan></text>
    </g>
  </g>
</svg>
