<?xml version="1.0" encoding="utf-8"?>
<!-- Generator: Adobe Illustrator 26.3.1, SVG Export Plug-In . SVG Version: 6.00 Build 0)  -->
<svg version="1.1" xmlns="http://www.w3.org/2000/svg" xmlns:xlink="http://www.w3.org/1999/xlink" x="0px" y="0px"
	 viewBox="0 0 300 300" style="enable-background:new 0 0 300 300;" xml:space="preserve">
<style type="text/css">
	.st0{fill-rule:evenodd;clip-rule:evenodd;fill:#F2F2F2;}
	.st1{fill-rule:evenodd;clip-rule:evenodd;fill:#FFFFFF;}
	.st2{fill-rule:evenodd;clip-rule:evenodd;fill:#CCCCCC;}
	.st3{fill-rule:evenodd;clip-rule:evenodd;fill:#A8A8A8;}
	.st4{fill-rule:evenodd;clip-rule:evenodd;fill:#D9DADB;}
	.st5{fill:#BD5531;}
	.st6{fill:#F9B94F;}
	.st7{fill:#F6A631;}
	.st8{fill:#E8623D;}
	.st9{fill:url(#SVGID_1_);}
	.st10{fill:url(#SVGID_00000156564170310752980360000004148810272535077028_);}
	.st11{fill:#383838;}
</style>
<g id="Guides_For_Artboard">
</g>
<g id="Layer_1">
</g>
<g id="Layer_3">
	<g>
		<path class="st0" d="M64.2,131.26l29.97-10.92l-8.35-20.76l108.09-30.82c0,0,15.01,13.39,22.38,33.98
			c7.37,20.6,8.66,38.79,9.3,50.56c0.64,11.77-3.21,21.4-3.21,21.4l-116.01,37.78c0,0-13.91-21.62-14.98-31.89
			c-1.07-10.27-14.59-33.52-14.59-33.52L64.2,131.26z"/>
		<path class="st1" d="M114.68,91.35l79.24-22.6c0,0,15.01,13.39,22.38,33.98c7.37,20.6,8.66,38.79,9.3,50.56
			c0.18,3.37,0,6.56-0.36,9.4l-3.72,4.18c0,0,2.75-29.69-7.81-52.54c-10.55-22.84-23.33-34.46-23.33-34.46l-76.61,15.46
			C113.77,95.34,114.1,93.75,114.68,91.35z"/>
		<path class="st2" d="M215.26,177.02l-108.89,35.46c0,0-0.96-1.49-2.39-3.87c1.34-10.71,3.23-30.47,1.71-48.43
			c-2.22-26.27-19.86-60.61-19.86-60.61l8.8,1.15c0,0,12.6,25.28,16.03,45.19c3.42,19.91,3.96,38.21,3.32,43.45
			c-0.64,5.24-1.71,17.55,4.92,15.2c6.63-2.35,93.54-32.32,96.43-33.28C216.91,170.75,216.21,174,215.26,177.02z"/>
		<path class="st2" d="M73.3,130.72c0,0,11.88,13.81,18.41,28.68c6.53,14.88,10.87,44.13,10.87,44.13l5.51-9.99
			c0,0-2.6-47.23-5.47-55.19c-2.87-7.95-8.44-18.01-8.44-18.01L73.3,130.72z"/>
		<path class="st3" d="M93.08,124.91l-23.81,8.37c5.6,6.41,16.49,20.02,22.85,35.28c3.91,9.4,6.23,18.6,8.15,26.22
			c0.83,3.31,1.58,6.29,2.3,8.75c0.78-7.66,1.29-20.58-0.33-40.23C101.02,148.39,97.15,135.2,93.08,124.91L93.08,124.91z
			 M62.15,128.55l28.26-9.94c-4.7-10.41-8.96-16.56-8.99-16.59l-2.68-3.93l4.58-1.29l109.59-30.82l1.76-0.5l1.39,1.2
			c0.06,0.05,20.94,17.83,29.34,51.85c8.36,33.88,1.26,56.95,1.24,57.02l-0.49,1.63l-1.6,0.59c-0.33,0.12-114.41,42.47-121.72,38.81
			c-4.73-2.37-6.64-9.94-9.21-20.15c-1.86-7.4-4.12-16.34-7.83-25.26c-8.31-19.95-24.93-36.98-24.98-37.03l-3.71-3.83L62.15,128.55
			L62.15,128.55z M108.53,210.33c1.12-6.65,2.67-21.64,0.54-47.59c-2.38-28.9-14.25-51.74-19.49-60.59l103.36-29.07
			c4.49,4.34,19.21,20.2,25.85,47.1c6.65,26.95,3.07,46.31,1.75,51.83C207.76,176.72,124.81,207.28,108.53,210.33z"/>
		<path class="st4" d="M117.13,200.4c-0.71,0.25-1.49-0.13-1.74-0.84c-0.25-0.71,0.13-1.49,0.84-1.74l99.26-34.89
			c0.71-0.25,1.49,0.13,1.74,0.84c0.25,0.71-0.13,1.49-0.84,1.74L117.13,200.4L117.13,200.4z M99.08,167.17
			c0.71-0.25,1.49,0.13,1.74,0.84c0.25,0.71-0.13,1.49-0.84,1.74l-1.05,0.34c-0.71,0.25-1.49-0.13-1.74-0.84
			c-0.25-0.71,0.13-1.49,0.84-1.74L99.08,167.17L99.08,167.17z M98.02,157.92c0.71-0.25,1.49,0.13,1.74,0.84
			c0.25,0.71-0.13,1.49-0.84,1.74l-3.76,1.53c-0.71,0.25-1.49-0.13-1.74-0.84c-0.25-0.71,0.13-1.49,0.84-1.74L98.02,157.92
			L98.02,157.92z M96.2,149.13c0.71-0.25,1.49,0.13,1.74,0.84c0.25,0.71-0.13,1.49-0.84,1.74l-6.45,2.51
			c-0.71,0.25-1.49-0.13-1.74-0.84c-0.25-0.71,0.13-1.49,0.84-1.74L96.2,149.13L96.2,149.13z M94.69,140.14
			c0.71-0.25,1.49,0.13,1.74,0.84c0.25,0.71-0.13,1.49-0.84,1.74l-10.06,3.92c-0.71,0.25-1.49-0.13-1.74-0.84
			c-0.25-0.71,0.13-1.49,0.84-1.74L94.69,140.14L94.69,140.14z M183.39,139.56c-0.71,0.25-1.49-0.13-1.74-0.84
			c-0.25-0.71,0.13-1.49,0.84-1.74l30.7-10.79c0.71-0.25,1.49,0.13,1.74,0.84c0.25,0.71-0.13,1.49-0.84,1.74L183.39,139.56
			L183.39,139.56z M183.84,130.01l28.17-9.9c0.71-0.25,1.09-1.03,0.84-1.74c-0.25-0.71-1.03-1.09-1.74-0.84l-28.17,9.9
			c-0.71,0.25-1.09,1.03-0.84,1.74C182.35,129.89,183.13,130.26,183.84,130.01L183.84,130.01z M113.41,136
			c0.62,1.97,1.76,6.11,2.66,12.27c0.82,5.62,1.26,9.48,1.47,11.54l54.86-19.29c0.3-1.75,0.87-6.49-0.27-12.35
			c-1.07-5.52-2.93-9.66-3.84-11.47L113.41,136L113.41,136z M113.36,148.67c1.28,8.73,1.61,13.1,1.62,13.11
			c0.06,0.75,0.71,1.32,1.47,1.26c0.16-0.01,0.3-0.05,0.44-0.11l57.17-20.1c0.46-0.16,0.78-0.54,0.88-0.99l0,0
			c0-0.02,1.45-6.21-0.1-14.19c-1.54-7.93-4.68-13.3-4.69-13.31c-0.33-0.58-1.02-0.82-1.63-0.61v0l-57.27,20.13
			c-0.71,0.25-1.09,1.03-0.84,1.74l0.02,0.05l0,0C110.42,135.67,112.1,140.04,113.36,148.67L113.36,148.67z M117.38,172.15
			l98.24-34.53c0.71-0.25,1.09-1.03,0.84-1.74c-0.25-0.71-1.03-1.09-1.74-0.84l-98.24,34.53c-0.71,0.25-1.09,1.03-0.84,1.74
			C115.89,172.02,116.67,172.4,117.38,172.15L117.38,172.15z M117.7,181.43l98.86-34.75c0.71-0.25,1.09-1.03,0.84-1.74
			c-0.25-0.71-1.03-1.09-1.74-0.84l-98.86,34.75c-0.71,0.25-1.09,1.03-0.84,1.74C116.2,181.3,116.98,181.67,117.7,181.43
			L117.7,181.43z M117.66,190.82l99.19-34.87c0.71-0.25,1.09-1.03,0.84-1.74c-0.25-0.71-1.03-1.09-1.74-0.84l-99.19,34.87
			c-0.71,0.25-1.09,1.03-0.84,1.74C116.17,190.7,116.94,191.07,117.66,190.82z"/>
		<path class="st4" d="M129.42,111.12c-1.87-1.31-3.74-2.63-5.6-3.94c-1.85-1.31-3.71-2.62-5.56-3.94
			c-0.76,0.23-1.51,0.45-2.26,0.68c1.04,2.73,2.09,5.49,3.15,8.28c1.07,2.82,2.16,5.68,3.26,8.57c0.94-0.33,1.89-0.66,2.84-0.98
			c-0.75-1.94-1.49-3.86-2.22-5.76c-0.73-1.89-1.46-3.77-2.18-5.63c2.02,1.45,4.04,2.9,6.06,4.35c2.02,1.45,4.06,2.91,6.1,4.36l0,0
			c0.56-0.19,1.13-0.39,1.69-0.58c-1.13-2.78-2.26-5.53-3.37-8.25c-1.1-2.69-2.19-5.35-3.26-7.98c-0.89,0.27-1.78,0.53-2.68,0.8
			c0.66,1.64,1.33,3.3,2,4.96C128.06,107.73,128.74,109.42,129.42,111.12L129.42,111.12z M149.99,107.87
			c0.44,0.97,0.87,1.95,1.31,2.93c-3.32,1.14-6.69,2.31-10.12,3.49c-0.58-1.36-1.15-2.72-1.73-4.07c-0.57-1.34-1.13-2.68-1.69-4.01
			c-0.56-1.32-1.12-2.64-1.67-3.94c-0.55-1.3-1.1-2.59-1.65-3.88c3.38-1.01,6.7-2.01,9.97-2.98c0.41,0.91,0.82,1.82,1.22,2.74
			c-2.45,0.76-4.94,1.52-7.45,2.29c0.51,1.19,1.03,2.39,1.55,3.59c2.43-0.77,4.84-1.54,7.21-2.29c0.4,0.9,0.81,1.8,1.21,2.7
			c-2.39,0.78-4.8,1.56-7.24,2.36c0.51,1.2,1.03,2.4,1.55,3.6C145,109.55,147.51,108.7,149.99,107.87L149.99,107.87z M167.33,88.55
			c-0.81,0.24-1.64,0.49-2.45,0.73c0.4,1.82,0.79,3.66,1.19,5.51c0.41,1.87,0.81,3.76,1.22,5.67c-1.36-1.6-2.72-3.18-4.07-4.77
			c-1.34-1.57-2.68-3.14-4.01-4.7c-0.49,0.15-0.98,0.3-1.48,0.44c0.34,1.87,0.68,3.76,1.02,5.67c0.35,1.93,0.7,3.88,1.05,5.85
			c-1.35-1.65-2.69-3.28-4.01-4.91c-1.32-1.62-2.64-3.23-3.94-4.84c-0.88,0.26-1.77,0.53-2.67,0.8c1.9,2.22,3.82,4.46,5.75,6.71
			c1.94,2.26,3.9,4.54,5.87,6.83c0.67-0.23,1.34-0.46,2-0.69c-0.13-0.88-0.25-1.75-0.38-2.62c-0.13-0.86-0.25-1.73-0.37-2.59
			c-0.17-0.86-0.34-1.72-0.5-2.57c-0.16-0.85-0.32-1.7-0.49-2.54c0.59,0.7,1.18,1.4,1.76,2.11c0.58,0.7,1.17,1.41,1.77,2.12
			c0.63,0.69,1.26,1.39,1.89,2.09c0.63,0.69,1.26,1.39,1.89,2.09c0.64-0.22,1.28-0.44,1.91-0.66c-0.51-2.71-1-5.38-1.5-8.02
			C168.27,93.64,167.8,91.07,167.33,88.55L167.33,88.55z M181.51,86.85c-0.48-0.45-0.97-0.8-1.46-1.04
			c-0.49-0.25-0.97-0.41-1.45-0.5c-0.49-0.09-0.96-0.11-1.42-0.07c-0.47,0.04-0.91,0.13-1.34,0.26c-0.41,0.12-0.79,0.29-1.14,0.51
			c-0.36,0.22-0.66,0.48-0.93,0.79c-0.26,0.31-0.47,0.66-0.59,1.06c-0.12,0.4-0.15,0.84-0.09,1.32c0.06,0.49,0.23,1.01,0.52,1.58
			c0.32,0.61,0.68,1.12,1.06,1.52c0.38,0.4,0.79,0.7,1.24,0.92c0.43,0.22,0.89,0.36,1.36,0.44c0.47,0.08,0.94,0.11,1.43,0.08
			c0.49-0.03,0.98-0.08,1.46-0.16c0.39-0.07,0.77-0.11,1.12-0.11c0.36,0,0.69,0.04,1.01,0.12c0.31,0.08,0.59,0.22,0.84,0.42
			c0.25,0.19,0.45,0.45,0.63,0.78c0.19,0.38,0.3,0.72,0.3,1.03c0,0.31-0.07,0.59-0.22,0.83c-0.14,0.24-0.35,0.46-0.61,0.64
			c-0.25,0.18-0.55,0.32-0.89,0.44c-0.33,0.11-0.68,0.18-1.05,0.2c-0.37,0.02-0.74-0.01-1.11-0.1c-0.37-0.09-0.73-0.24-1.1-0.45
			c-0.36-0.21-0.71-0.49-1.04-0.84c-0.39,0.58-0.78,1.16-1.18,1.75c0.74,0.77,1.47,1.33,2.21,1.69c0.74,0.35,1.49,0.53,2.25,0.54
			c0.75,0.01,1.5-0.13,2.26-0.39c0.49-0.17,0.93-0.39,1.33-0.66c0.4-0.27,0.73-0.58,0.99-0.94c0.26-0.36,0.44-0.77,0.54-1.22
			c0.09-0.44,0.09-0.94-0.01-1.47c-0.09-0.53-0.31-1.1-0.63-1.72c-0.36-0.65-0.74-1.18-1.14-1.6c-0.4-0.41-0.83-0.73-1.27-0.96
			c-0.45-0.22-0.9-0.37-1.38-0.46c-0.47-0.08-0.95-0.11-1.45-0.09c-0.48,0.02-0.98,0.07-1.48,0.15c-0.36,0.06-0.71,0.1-1.04,0.11
			c-0.33,0.02-0.65,0-0.94-0.05c-0.29-0.06-0.56-0.16-0.8-0.32c-0.24-0.16-0.43-0.39-0.59-0.68c-0.18-0.34-0.25-0.68-0.22-1
			c0.02-0.32,0.16-0.62,0.42-0.88c0.26-0.26,0.63-0.47,1.14-0.63c0.4-0.12,0.81-0.16,1.24-0.12c0.42,0.03,0.81,0.13,1.19,0.28
			c0.38,0.15,0.7,0.33,0.96,0.55C180.8,87.87,181.16,87.36,181.51,86.85z"/>
		<path class="st0" d="M144.93,235.76c33.95,0,61.65-2.31,61.65-5.14c0-2.83-27.69-5.14-61.65-5.14c-33.95,0-61.64,2.31-61.64,5.14
			C83.29,233.45,110.98,235.76,144.93,235.76z"/>
	</g>
	<g id="Group_34227_00000041978604948979039130000007091550928981545899_" transform="translate(-90 -376.212)">
		<g id="Group_34224_00000067209288729406280440000016276132048979911826_" transform="translate(330.144 86.212)">
			<path id="Path_402_00000039113059649531110050000014089539649520696989_" class="st5" d="M-98.51,426.35L-98.51,426.35l-1.1,5.72
				l-0.01,0l-4.4-3.82L-98.51,426.35z"/>
			<path id="Path_403_00000017505168776342440710000008572924552824553655_" class="st6" d="M-94.1,430.17l-5.5,1.9l1.1-5.72
				L-94.1,430.17z"/>
			<path id="Path_404_00000174587711083068935810000010678487967953845890_" class="st7" d="M-99.6,432.07l4.4,3.82l1.11-5.72
				l0-0.01L-99.6,432.07z"/>
			<path id="Path_405_00000036966818967815481090000003981459919847155856_" class="st8" d="M-99.61,432.07l-5.51,1.9l1.1-5.72
				L-99.61,432.07z"/>
			<path id="Path_406_00000036967346202255935070000001095968539475006618_" class="st5" d="M-105.12,433.97L-105.12,433.97
				l4.4,3.82l1.1-5.72L-105.12,433.97z"/>
			<path id="Path_407_00000160880052683625702100000014063512619106772611_" class="st8" d="M-106.22,439.7l5.51-1.9l-4.4-3.81
				L-106.22,439.7z"/>
			<path id="Path_408_00000090987742181722411490000003332008299718861465_" class="st6" d="M-100.15,421.58l4.4,3.82l1.11-5.72
				l0-0.01L-100.15,421.58z"/>
			<path id="Path_409_00000047023028924942993020000015392883402263226511_" class="st8" d="M-91.89,418.72l-1.11,5.72l5.51-1.9
				L-91.89,418.72L-91.89,418.72z"/>
			<path id="Path_410_00000096025656234828212070000014483443338772288645_" class="st5" d="M-87.49,422.54L-87.49,422.54l-1.1,5.72
				l-0.01,0l-4.4-3.82L-87.49,422.54z"/>
			<path id="Path_411_00000114046881397123256530000008197085565660983201_" class="st8" d="M-88.59,428.26l-5.51,1.9l1.1-5.72
				L-88.59,428.26z"/>
			<path id="Path_412_00000070077196419360335440000011843516445479814278_" class="st5" d="M-94.1,430.17L-94.1,430.17l4.4,3.82
				l1.1-5.72L-94.1,430.17z"/>
			<path id="Path_413_00000053523491075276659500000013782071911195024266_" class="st8" d="M-95.21,435.89l5.51-1.9l-4.4-3.81
				L-95.21,435.89z"/>
			<path id="Path_414_00000041257728053962764590000016288839126331397010_" class="st5" d="M-91.89,418.72l4.4,3.81l1.11-5.72
				L-91.89,418.72z"/>
		</g>
	</g>
	<g>
		<linearGradient id="SVGID_1_" gradientUnits="userSpaceOnUse" x1="202.6718" y1="209.8128" x2="225.9418" y2="209.8128">
			<stop  offset="0" style="stop-color:#E8623D"/>
			<stop  offset="0.9944" style="stop-color:#CC5236"/>
		</linearGradient>
		<circle class="st9" cx="214.31" cy="209.81" r="11.63"/>
	</g>
	<g>
		
			<linearGradient id="SVGID_00000117645228025325480700000007494757948553560976_" gradientUnits="userSpaceOnUse" x1="190.405" y1="137.4769" x2="220.6109" y2="137.4769">
			<stop  offset="0" style="stop-color:#E8623D"/>
			<stop  offset="0.9944" style="stop-color:#CC5236"/>
		</linearGradient>
		<path style="fill:url(#SVGID_00000117645228025325480700000007494757948553560976_);" d="M212.53,189.03L212.53,189.03
			c-4.61,0.39-8.75-2.84-9.47-7.42l-12.48-78.89c-1.32-8.35,4.72-16.07,13.15-16.79h0c8.43-0.72,15.69,5.86,15.8,14.32l1.07,79.86
			C220.67,184.75,217.15,188.64,212.53,189.03z"/>
	</g>
	<g>
		<path class="st11" d="M210.41,222.71c-0.96,0-1.93-0.11-2.9-0.35c-3.18-0.77-5.86-2.74-7.56-5.53c-1.7-2.79-2.21-6.08-1.43-9.26
			c0.77-3.18,2.74-5.86,5.53-7.56c2.79-1.7,6.08-2.21,9.26-1.43c6.56,1.6,10.59,8.23,8.99,14.79c0,0,0,0,0,0
			C220.94,218.96,215.92,222.71,210.41,222.71z M210.39,199.44c-2,0-3.96,0.55-5.71,1.61c-2.52,1.53-4.29,3.95-4.99,6.81
			c-0.7,2.86-0.24,5.82,1.29,8.34c1.53,2.52,3.95,4.29,6.81,4.99c5.91,1.44,11.89-2.19,13.33-8.1c1.44-5.91-2.19-11.89-8.1-13.33
			C212.15,199.55,211.27,199.44,210.39,199.44z M221.71,213.23L221.71,213.23L221.71,213.23z"/>
	</g>
	<g>
		<path class="st11" d="M207.89,190.33c-4.58,0-8.59-3.36-9.32-7.96l-12.48-78.89c-0.67-4.21,0.41-8.37,3.04-11.72
			c2.63-3.35,6.41-5.4,10.65-5.76c4.24-0.36,8.32,1.01,11.48,3.87c3.16,2.86,4.93,6.78,4.98,11.04l0.35,25.87
			c0,0.33-0.26,0.61-0.6,0.61c-0.33,0.01-0.61-0.26-0.61-0.6l-0.35-25.87c-0.05-3.92-1.68-7.53-4.59-10.16
			c-2.9-2.63-6.66-3.9-10.56-3.56c-3.91,0.33-7.39,2.22-9.8,5.3c-2.42,3.09-3.41,6.92-2.8,10.79l12.48,78.89
			c0.67,4.24,4.55,7.27,8.82,6.91c4.28-0.36,7.58-4.01,7.52-8.3l-0.54-40.58c0-0.33,0.26-0.61,0.6-0.61
			c0.33-0.01,0.61,0.26,0.61,0.6l0.54,40.58c0.07,4.92-3.72,9.11-8.63,9.52C208.42,190.32,208.15,190.33,207.89,190.33z"/>
	</g>
</g>
</svg>
