<svg xmlns="http://www.w3.org/2000/svg" width="48.585" height="28.051" viewBox="0 0 48.585 28.051">
  <g id="icon" transform="translate(-246.75 -148.501)">
    <path id="Path_11" data-name="Path 11" d="M260.892,229.3v.012l-5.386,9.342h-.012l-5.4-9.354Z" transform="translate(7.449 -71.457)" fill="#bd5532"/>
    <path id="Path_12" data-name="Path 12" d="M274.083,238.671H263.3l5.385-9.342Z" transform="translate(-0.344 -71.474)" fill="#ffbb4d"/>
    <path id="Path_13" data-name="Path 13" d="M263.3,252.129l5.4,9.354,5.4-9.342v-.012Z" transform="translate(-0.343 -84.932)" fill="#f9a730"/>
    <path id="Path_14" data-name="Path 14" d="M247.719,238.654h-10.8l5.4-9.354Z" transform="translate(15.225 -71.457)" fill="#e9623e"/>
    <path id="Path_15" data-name="Path 15" d="M236.924,252.129v.012l5.4,9.342,5.4-9.354Z" transform="translate(15.225 -84.932)" fill="#bd5532"/>
    <path id="Path_16" data-name="Path 16" d="M223.75,261.5h10.8l-5.4-9.342Z" transform="translate(23 -84.95)" fill="#e9623e"/>
    <path id="Path_17" data-name="Path 17" d="M276.457,206.5l5.4,9.354,5.4-9.342V206.5Z" transform="translate(-8.109 -58)" fill="#ffbb4d"/>
    <path id="Path_18" data-name="Path 18" d="M308.186,206.5l-5.4,9.342h10.8L308.2,206.5Z" transform="translate(-23.651 -58)" fill="#e9623e"/>
    <path id="Path_19" data-name="Path 19" d="M313.584,229.3v.012l-5.385,9.342h-.012l-5.4-9.354Z" transform="translate(-23.651 -71.457)" fill="#bd5532"/>
    <path id="Path_20" data-name="Path 20" d="M300.409,238.654h-10.8l5.4-9.354Z" transform="translate(-15.875 -71.457)" fill="#e9623e"/>
    <path id="Path_21" data-name="Path 21" d="M289.615,252.129v.012l5.4,9.342,5.4-9.354Z" transform="translate(-15.876 -84.932)" fill="#bd5532"/>
    <path id="Path_22" data-name="Path 22" d="M276.443,261.5h10.8l-5.4-9.342Z" transform="translate(-8.101 -84.95)" fill="#e9623e"/>
    <path id="Path_23" data-name="Path 23" d="M315.975,206.5l5.4,9.342,5.4-9.342Z" transform="translate(-31.435 -58)" fill="#bd5532"/>
  </g>
</svg>
