<?xml version="1.0" encoding="utf-8"?>
<!-- Generator: Adobe Illustrator 26.3.1, SVG Export Plug-In . SVG Version: 6.00 Build 0)  -->
<svg version="1.1" id="_x2018_ëîé_x5F_1" xmlns="http://www.w3.org/2000/svg" xmlns:xlink="http://www.w3.org/1999/xlink"
	 x="0px" y="0px" viewBox="0 0 3308.21 3200" style="enable-background:new 0 0 3308.21 3200;" xml:space="preserve">
<style type="text/css">
	.st0{fill:#D9DADB;}
	.st1{fill:url(#XMLID_00000073680121020939718370000013645816646846539670_);}
	.st2{fill:#F6F5F8;}
	.st3{fill:#DBDBDB;}
	.st4{fill:#F9B94F;}
	.st5{fill:#F6A631;}
	.st6{fill:#FFFFFF;}
</style>
<ellipse id="XMLID_00000073679620701347888780000005589933473164845192_" class="st0" cx="1702.12" cy="2416.08" rx="1124.05" ry="84.81"/>
<linearGradient id="XMLID_00000154388560315296299600000000831412650557549731_" gradientUnits="userSpaceOnUse" x1="651.3011" y1="1558.4067" x2="2738.4536" y2="1558.4067">
	<stop  offset="0" style="stop-color:#E8623D"/>
	<stop  offset="0.9944" style="stop-color:#CC5236"/>
</linearGradient>
<path id="XMLID_00000062909659869456115390000001221845105907039640_" style="fill:url(#XMLID_00000154388560315296299600000000831412650557549731_);" d="
	M1762.24,975.39l-120.78-222.26c-18.09-33.3-52.95-54.03-90.85-54.03H967.55c-42.32,0-80.37,25.79-96.05,65.11L788.98,971.2
	c-7.95,19.95-27.26,33.03-48.73,33.03H651.3v1413.48h2087.15V1004.23h-927.72C1790.51,1004.23,1771.9,993.17,1762.24,975.39z"/>
<g id="XMLID_00000107564526445875459210000018181278868179808649_">
	
		<ellipse id="XMLID_00000114062043893110336470000013684094897434575014_" transform="matrix(0.7071 -0.7071 0.7071 0.7071 -590.6503 1308.7612)" class="st2" cx="1284.49" cy="1367.36" rx="147.24" ry="147.24"/>
	<g id="XMLID_00000119111927178909904610000015807067987893009031_">
		
			<ellipse id="XMLID_00000140734418722576466770000007985620251046923656_" transform="matrix(0.7071 -0.7071 0.7071 0.7071 -350.2505 1889.1376)" class="st2" cx="2105.27" cy="1367.36" rx="147.24" ry="147.24"/>
	</g>
</g>
<g id="XMLID_00000165207442962028001140000000486081988683323776_">
	<path id="XMLID_00000055707278364593225710000016743337249814205577_" class="st2" d="M2113.77,2331.27
		c-9.24,0-18.54-2.96-26.4-9.08c-106.09-82.64-217.15-133.98-330.1-152.59c-89.77-14.8-181.35-9.14-272.19,16.82
		c-155.68,44.48-254.87,132.89-255.86,133.78c-17.64,15.91-44.83,14.51-60.74-3.12c-15.91-17.63-14.52-44.82,3.11-60.74
		c4.62-4.17,115.2-102.72,289.85-152.62c103.16-29.47,207.4-35.86,309.8-18.98c127.28,20.97,251.42,78.04,368.97,169.6
		c18.73,14.6,22.09,41.62,7.5,60.36C2139.25,2325.57,2126.58,2331.27,2113.77,2331.27z"/>
</g>
<g id="Group_34224_00000043426583604872004120000009037049178901675181_" transform="translate(330.144 86.212)">
	<path id="Path_402_00000035512692920828392520000013931759265567425185_" class="st3" d="M1331.49,1637.67v0.14l-61.7,107.01h-0.14
		l-61.81-107.15H1331.49z"/>
	<path id="Path_403_00000012442930170080091520000012634275293742254511_" class="st4" d="M1393.32,1744.82H1269.8l61.69-107.01
		L1393.32,1744.82z"/>
	<path id="Path_404_00000140728711156652481470000003024440953041063326_" class="st5" d="M1269.8,1744.82l61.83,107.15
		l61.83-107.01v-0.14L1269.8,1744.82z"/>
	<path id="Path_405_00000014594407833589944100000009305070217756109217_" class="st6" d="M1269.66,1744.82H1146l61.83-107.15
		L1269.66,1744.82z"/>
	<path id="Path_406_00000160189214831386869080000016630403521935886776_" class="st3" d="M1146,1744.82v0.14l61.83,107.01
		l61.83-107.15L1146,1744.82z"/>
	<path id="Path_407_00000075146978751196239140000005938266533526473377_" class="st6" d="M1084.17,1851.97h123.66L1146,1744.96
		L1084.17,1851.97z"/>
	<path id="Path_408_00000135662704202552080770000012154862207885926039_" class="st4" d="M1331.56,1530.65l61.83,107.15
		l61.84-107.02v-0.14H1331.56z"/>
	<path id="Path_409_00000163777409513059622750000016726002797899454862_" class="st6" d="M1516.98,1530.65l-61.83,107.01h123.66
		l-61.68-107.01H1516.98z"/>
	<path id="Path_410_00000140000699370315175360000009700362701776954030_" class="st3" d="M1578.81,1637.67v0.14l-61.69,107.01
		h-0.14l-61.83-107.15H1578.81z"/>
	<path id="Path_411_00000075855018604007231750000015542512168477457074_" class="st6" d="M1516.98,1744.82h-123.66l61.83-107.15
		L1516.98,1744.82z"/>
	<path id="Path_412_00000135652339209274306770000003319671783327308421_" class="st3" d="M1393.32,1744.82v0.14l61.83,107.01
		l61.83-107.15L1393.32,1744.82z"/>
	<path id="Path_413_00000067953670072454433500000001146617996073616280_" class="st6" d="M1331.49,1851.97h123.67l-61.86-107.01
		L1331.49,1851.97z"/>
	<path id="Path_414_00000121963395200901202440000014603792892818394011_" class="st3" d="M1517.05,1530.65l61.83,107.01
		l61.83-107.01H1517.05z"/>
</g>
</svg>
