<svg xmlns="http://www.w3.org/2000/svg" width="79.514" height="59.017" viewBox="0 0 79.514 59.017">
  <g id="logo-text" transform="translate(-1231.951 -21)">
    <g id="Group_776" data-name="Group 776" transform="translate(1000.664 -127.501)">
      <path id="Path_11" data-name="Path 11" d="M260.892,229.3v.012l-5.386,9.342h-.012l-5.4-9.354Z" transform="translate(7.449 -71.457)" fill="#bd5532"/>
      <path id="Path_12" data-name="Path 12" d="M274.083,238.671H263.3l5.385-9.342Z" transform="translate(-0.344 -71.474)" fill="#ffbb4d"/>
      <path id="Path_13" data-name="Path 13" d="M263.3,252.129l5.4,9.354,5.4-9.342v-.012Z" transform="translate(-0.343 -84.932)" fill="#f9a730"/>
      <path id="Path_14" data-name="Path 14" d="M247.719,238.654h-10.8l5.4-9.354Z" transform="translate(15.225 -71.457)" fill="#e9623e"/>
      <path id="Path_15" data-name="Path 15" d="M236.924,252.129v.012l5.4,9.342,5.4-9.354Z" transform="translate(15.225 -84.932)" fill="#bd5532"/>
      <path id="Path_16" data-name="Path 16" d="M223.75,261.5h10.8l-5.4-9.342Z" transform="translate(23 -84.95)" fill="#e9623e"/>
      <path id="Path_17" data-name="Path 17" d="M276.457,206.5l5.4,9.354,5.4-9.342V206.5Z" transform="translate(-8.109 -58)" fill="#ffbb4d"/>
      <path id="Path_18" data-name="Path 18" d="M308.186,206.5l-5.4,9.342h10.8L308.2,206.5Z" transform="translate(-23.651 -58)" fill="#e9623e"/>
      <path id="Path_19" data-name="Path 19" d="M313.584,229.3v.012l-5.385,9.342h-.012l-5.4-9.354Z" transform="translate(-23.651 -71.457)" fill="#bd5532"/>
      <path id="Path_20" data-name="Path 20" d="M300.409,238.654h-10.8l5.4-9.354Z" transform="translate(-15.875 -71.457)" fill="#e9623e"/>
      <path id="Path_21" data-name="Path 21" d="M289.615,252.129v.012l5.4,9.342,5.4-9.354Z" transform="translate(-15.876 -84.932)" fill="#bd5532"/>
      <path id="Path_22" data-name="Path 22" d="M276.443,261.5h10.8l-5.4-9.342Z" transform="translate(-8.101 -84.95)" fill="#e9623e"/>
      <path id="Path_23" data-name="Path 23" d="M315.975,206.5l5.4,9.342,5.4-9.342Z" transform="translate(-31.435 -58)" fill="#bd5532"/>
    </g>
    <g id="Group_777" data-name="Group 777" transform="translate(71.593 33.008)">
      <path id="Path_24" data-name="Path 24" d="M171.632,304.849a3.369,3.369,0,0,1-1.064-.12l.215-1.422a8.239,8.239,0,0,0,.885.059,4.969,4.969,0,0,0,1.057-.108,1.472,1.472,0,0,0,1.237-1.636V296.47h1.446v5.152a2.971,2.971,0,0,1-.98,2.39,3.78,3.78,0,0,1-2.127.8,6.217,6.217,0,0,1-.669.036m3.741-10.881a.8.8,0,0,1,.251.591.849.849,0,0,1-1.7,0,.8.8,0,0,1,.251-.591.851.851,0,0,1,1.2,0" transform="translate(989.789 -270.396)"/>
      <path id="Path_25" data-name="Path 25" d="M196.753,307.452a2.818,2.818,0,0,1-1.027,2.068,4.642,4.642,0,0,1-3.036.873,8.464,8.464,0,0,1-1.135-.072,5.723,5.723,0,0,1-.729-.131l.311-1.386a8.029,8.029,0,0,0,1.566.143,3.44,3.44,0,0,0,2.139-.526,1.454,1.454,0,0,0,.49-.944h-3.179a2.633,2.633,0,0,1-1.4-.395,2.95,2.95,0,0,1-1.028-1.052,2.779,2.779,0,0,1-.383-1.423,2.748,2.748,0,0,1,.383-1.416,2.876,2.876,0,0,1,1.028-1.034,2.7,2.7,0,0,1,1.4-.382h4.626v4.231h1.112v1.446Zm-5.569-1.846a1.3,1.3,0,0,0,.968.424h3.2V303.2h-3.2a1.3,1.3,0,0,0-.968.419,1.37,1.37,0,0,0-.406.991,1.4,1.4,0,0,0,.406,1" transform="translate(977.646 -275.605)"/>
      <rect id="Rectangle_8" data-name="Rectangle 8" width="4.434" height="1.446" transform="translate(1175.295 30.401)"/>
      <rect id="Rectangle_9" data-name="Rectangle 9" width="4.434" height="1.446" transform="translate(1179.49 30.401)"/>
      <path id="Path_26" data-name="Path 26" d="M241.237,309.465a2.119,2.119,0,0,1-.9-.192,2.362,2.362,0,0,1-.728-.514,2.139,2.139,0,0,1-.694.514,1.987,1.987,0,0,1-.861.192H236.6v-1.447h1.3a.9.9,0,0,0,.9-.9v-2.235h1.446v2.246a1,1,0,0,0,.329.627.951.951,0,0,0,.663.256h1.386v1.447Zm-2.2,1.153a.8.8,0,0,1,.251.591.849.849,0,1,1-1.7,0,.8.8,0,0,1,.251-.591.851.851,0,0,1,1.195,0m2.235,0a.8.8,0,0,1,.251.591.814.814,0,0,1-.251.6.828.828,0,0,1-.61.251.8.8,0,0,1-.591-.251.823.823,0,0,1-.245-.6.849.849,0,0,1,1.446-.591" transform="translate(947.085 -277.618)"/>
      <path id="Path_27" data-name="Path 27" d="M254.38,300.8a.62.62,0,0,0,.466-.185.636.636,0,0,0,.179-.46v-3.682h1.446v3.682a2.047,2.047,0,0,1-.281,1.045,2.075,2.075,0,0,1-.759.764,2.032,2.032,0,0,1-1.051.281h-1.4V300.8Zm1.864-6.829a.8.8,0,0,1,.251.591.849.849,0,0,1-1.7,0,.8.8,0,0,1,.251-.591.851.851,0,0,1,1.2,0" transform="translate(936.489 -270.397)"/>
      <path id="Path_28" data-name="Path 28" d="M276.379,301.357a2.065,2.065,0,0,1-.754-.754,2.02,2.02,0,0,1-.28-1.04v-6.787h1.445v6.788a.607.607,0,0,0,.18.437.589.589,0,0,0,.442.185h.98v1.446h-.98a2.009,2.009,0,0,1-1.033-.275" transform="translate(922.025 -269.785)"/>
      <path id="Path_29" data-name="Path 29" d="M287.929,309.465a2.12,2.12,0,0,1-.9-.192,2.361,2.361,0,0,1-.728-.514,2.14,2.14,0,0,1-.694.514,1.986,1.986,0,0,1-.861.192h-1.456v-1.447h1.3a.9.9,0,0,0,.9-.9v-2.235h1.447v2.246a1,1,0,0,0,.329.627.95.95,0,0,0,.663.256h1.386v1.447Zm-2.2,1.153a.8.8,0,0,1,.251.591.849.849,0,0,1-1.7,0,.8.8,0,0,1,.251-.591.851.851,0,0,1,1.2,0m2.235,0a.8.8,0,0,1,.251.591.815.815,0,0,1-.251.6.829.829,0,0,1-.61.251.8.8,0,0,1-.593-.251.824.824,0,0,1-.244-.6.849.849,0,0,1,1.446-.591" transform="translate(916.885 -277.618)"/>
      <path id="Path_30" data-name="Path 30" d="M301.068,300.8a.62.62,0,0,0,.466-.185.636.636,0,0,0,.179-.46v-3.682h1.447v3.682a2.039,2.039,0,0,1-.282,1.045,2.071,2.071,0,0,1-.758.764,2.032,2.032,0,0,1-1.051.281h-1.4V300.8Zm.836-6.829a.8.8,0,0,1,.251.591.849.849,0,0,1-1.7,0,.8.8,0,0,1,.251-.591.851.851,0,0,1,1.2,0m2.2,0a.8.8,0,0,1,.251.591.849.849,0,0,1-1.7,0,.8.8,0,0,1,.251-.591.851.851,0,0,1,1.2,0" transform="translate(906.293 -270.397)"/>
      <path id="Path_31" data-name="Path 31" d="M316.639,301.357a2.065,2.065,0,0,1-.754-.754,2.02,2.02,0,0,1-.28-1.04v-6.787h1.445v6.788a.607.607,0,0,0,.18.437.589.589,0,0,0,.442.185h.98v1.446h-.98a2.009,2.009,0,0,1-1.033-.275" transform="translate(895.987 -269.785)"/>
      <path id="Path_32" data-name="Path 32" d="M324.952,305.83a.62.62,0,0,0,.466-.185.636.636,0,0,0,.179-.46V301.5h1.447v3.682a2.045,2.045,0,0,1-.282,1.046A2.069,2.069,0,0,1,326,307a2.032,2.032,0,0,1-1.051.281h-1.4V305.83Zm-.443,2.588a.851.851,0,0,1,1.2,0,.8.8,0,0,1,.251.591.849.849,0,0,1-1.7,0,.794.794,0,0,1,.251-.591" transform="translate(890.846 -275.429)"/>
      <path id="Path_33" data-name="Path 33" d="M345.848,307.452a2.817,2.817,0,0,1-1.027,2.068,4.642,4.642,0,0,1-3.036.873,8.464,8.464,0,0,1-1.135-.072,5.723,5.723,0,0,1-.729-.131l.311-1.386a8.029,8.029,0,0,0,1.566.143,3.44,3.44,0,0,0,2.139-.526,1.454,1.454,0,0,0,.49-.944h-3.179a2.633,2.633,0,0,1-1.4-.395,2.95,2.95,0,0,1-1.028-1.052,2.779,2.779,0,0,1-.383-1.423,2.745,2.745,0,0,1,.383-1.416,2.876,2.876,0,0,1,1.028-1.034,2.7,2.7,0,0,1,1.4-.382h4.625v4.231h1.112v1.446Zm-5.569-1.846a1.3,1.3,0,0,0,.968.424h3.2V303.2h-3.2a1.3,1.3,0,0,0-.968.419,1.37,1.37,0,0,0-.406.991,1.4,1.4,0,0,0,.406,1" transform="translate(881.219 -275.605)"/>
      <rect id="Rectangle_10" data-name="Rectangle 10" width="4.434" height="1.446" transform="translate(1227.963 30.401)"/>
      <rect id="Rectangle_11" data-name="Rectangle 11" width="4.434" height="1.446" transform="translate(1232.159 30.401)"/>
      <path id="Path_34" data-name="Path 34" d="M387.1,300.8a.62.62,0,0,0,.466-.185.636.636,0,0,0,.179-.46v-3.682h1.446v3.682a2.047,2.047,0,0,1-.281,1.045,2.075,2.075,0,0,1-.759.764,2.032,2.032,0,0,1-1.051.281h-1.4V300.8Zm1.864-6.829a.8.8,0,0,1,.251.591.849.849,0,0,1-1.7,0,.8.8,0,0,1,.251-.591.851.851,0,0,1,1.2,0" transform="translate(850.651 -270.397)"/>
      <path id="Path_35" data-name="Path 35" d="M170.568,347.121v-7.246h1.017l5.878,6.493v-6.493h.755v7.246l-1,.01-5.9-6.532v6.522Z" transform="translate(989.789 -300.246)" fill="gray"/>
      <path id="Path_36" data-name="Path 36" d="M201.218,350.919v-1.4a1.737,1.737,0,0,1-.554.79,2.792,2.792,0,0,1-.92.509,3.271,3.271,0,0,1-1.021.17,3.439,3.439,0,0,1-1.6-.341,2.41,2.41,0,0,1-1-.926,2.547,2.547,0,0,1-.342-1.319v-2.717h.725v2.658a1.748,1.748,0,0,0,.3,1,2.043,2.043,0,0,0,.845.7,2.971,2.971,0,0,0,2.381.016,2.107,2.107,0,0,0,.86-.685,1.651,1.651,0,0,0,.322-1v-2.7h.725l.011,5.234Z" transform="translate(973.481 -304.004)" fill="gray"/>
      <path id="Path_37" data-name="Path 37" d="M221.654,342.219a2.445,2.445,0,0,1,.971.98,2.8,2.8,0,0,1,.323,1.324,2.837,2.837,0,0,1-.363,1.47,2.341,2.341,0,0,1-1.006.931,3.33,3.33,0,0,1-1.49.317,3.2,3.2,0,0,1-1.6-.377,2.18,2.18,0,0,1-.956-1.062v1.329h-.725v-7.256h.725v3.341a2.047,2.047,0,0,1,.977-1.027,3.428,3.428,0,0,1,1.57-.342,3.124,3.124,0,0,1,1.575.372m0,3.839a1.843,1.843,0,0,0,.644-1.5,1.983,1.983,0,0,0-.579-1.464,2.418,2.418,0,0,0-1.776-.579,2.564,2.564,0,0,0-1.792.563,1.949,1.949,0,0,0-.613,1.511,1.817,1.817,0,0,0,.644,1.455,2.631,2.631,0,0,0,1.762.549,2.584,2.584,0,0,0,1.711-.539" transform="translate(959.884 -300.246)" fill="gray"/>
      <path id="Path_38" data-name="Path 38" d="M242.064,350.648v-.905a1.655,1.655,0,0,1-1.026.759,5.908,5.908,0,0,1-1.893.267,3.892,3.892,0,0,1-1.449-.231,1.859,1.859,0,0,1-.845-.609,1.357,1.357,0,0,1-.272-.81,1.376,1.376,0,0,1,.9-1.338,6.26,6.26,0,0,1,2.5-.4h2.042v-.483a.91.91,0,0,0-.549-.739,3.3,3.3,0,0,0-1.575-.3,3.943,3.943,0,0,0-1.5.241,1.194,1.194,0,0,0-.73.674h-.694a1.669,1.669,0,0,1,.9-1.037,4.253,4.253,0,0,1,2.038-.413,4.122,4.122,0,0,1,2.188.449,1.3,1.3,0,0,1,.69,1.1v3.774Zm-4.031-2.516a.973.973,0,0,0-.73.956.945.945,0,0,0,.579.84,2.978,2.978,0,0,0,1.445.317,4.266,4.266,0,0,0,2.068-.387,1.169,1.169,0,0,0,.669-1.041v-.956H240a5.793,5.793,0,0,0-1.967.271" transform="translate(947.098 -303.763)" fill="gray"/>
      <path id="Path_39" data-name="Path 39" d="M261.782,347.793h-2.959a1.259,1.259,0,0,1-.885-.3,1.074,1.074,0,0,1-.322-.831v-3.392h-1.288v-.684h1.288V340.9h.725v1.691h3.411v.685H258.34v3.2a.589.589,0,0,0,.19.463.726.726,0,0,0,.5.171h2.747Z" transform="translate(934.325 -300.908)" fill="gray"/>
      <path id="Path_40" data-name="Path 40" d="M274.844,341.037a.564.564,0,0,1,.4-.961.563.563,0,0,1,.413.956l0,.005a.553.553,0,0,1-.408.166.544.544,0,0,1-.4-.166m.77,6.224h-.735v-5.2h.735Z" transform="translate(922.455 -300.376)" fill="gray"/>
      <path id="Path_41" data-name="Path 41" d="M286.2,350.648v-.905a1.655,1.655,0,0,1-1.026.759,5.907,5.907,0,0,1-1.893.267,3.892,3.892,0,0,1-1.449-.231,1.866,1.866,0,0,1-.845-.609,1.414,1.414,0,0,1,.625-2.149,6.268,6.268,0,0,1,2.505-.4h2.042v-.483a.911.911,0,0,0-.548-.739,3.3,3.3,0,0,0-1.575-.3,3.943,3.943,0,0,0-1.5.241,1.2,1.2,0,0,0-.73.674H281.1a1.667,1.667,0,0,1,.9-1.037,4.252,4.252,0,0,1,2.038-.413,4.127,4.127,0,0,1,2.188.449,1.3,1.3,0,0,1,.69,1.1v3.773Zm-4.031-2.516a.973.973,0,0,0-.729.956.946.946,0,0,0,.579.84,2.978,2.978,0,0,0,1.445.317,4.266,4.266,0,0,0,2.068-.387,1.169,1.169,0,0,0,.669-1.041v-.956h-2.062a5.808,5.808,0,0,0-1.968.271" transform="translate(918.554 -303.763)" fill="gray"/>
      <path id="Path_42" data-name="Path 42" d="M306.844,347.121v-7.246h1.017l5.878,6.493v-6.493h.755v7.246l-1,.01-5.9-6.532v6.522Z" transform="translate(901.653 -300.246)" fill="gray"/>
      <path id="Path_43" data-name="Path 43" d="M338.058,348.091H332.34a1.75,1.75,0,0,0,.307,1.052,2.094,2.094,0,0,0,.916.72,3.547,3.547,0,0,0,1.434.262,3.773,3.773,0,0,0,1.359-.245,2.4,2.4,0,0,0,1.007-.68l.413.483a2.083,2.083,0,0,1-.572.5,3.763,3.763,0,0,1-.971.423,4.5,4.5,0,0,1-1.273.171,4.268,4.268,0,0,1-1.736-.338,2.826,2.826,0,0,1-1.208-.956,2.418,2.418,0,0,1-.438-1.434,2.725,2.725,0,0,1,.343-1.348,2.46,2.46,0,0,1,1.072-.986,4.026,4.026,0,0,1,1.838-.372,4.158,4.158,0,0,1,1.756.338,2.393,2.393,0,0,1,1.475,2.28Zm-1.475-1.69a3.477,3.477,0,0,0-3.468,0,1.732,1.732,0,0,0-.764,1.248h4.972a1.633,1.633,0,0,0-.739-1.248" transform="translate(885.657 -303.783)" fill="gray"/>
      <path id="Path_44" data-name="Path 44" d="M360.874,345.687l-1.761,5.2h-.936l-1.952-4.468-1.993,4.468h-.926l-1.731-5.2h.776l1.47,4.549,1.993-4.539h.795l1.982,4.539,1.511-4.549Z" transform="translate(872.723 -304.005)" fill="gray"/>
      <path id="Path_45" data-name="Path 45" d="M379.465,350.368l.23-.623a13.583,13.583,0,0,0,1.435.3,8.742,8.742,0,0,0,1.324.111,4.654,4.654,0,0,0,1.424-.186q.567-.187.568-.659a.745.745,0,0,0-.19-.559,1.4,1.4,0,0,0-.634-.3,14.339,14.339,0,0,0-1.419-.241,12.274,12.274,0,0,1-1.62-.277,1.415,1.415,0,0,1-.755-.422,1.238,1.238,0,0,1-.221-.79q0-1.41,2.667-1.409a9.067,9.067,0,0,1,1.47.125,10.727,10.727,0,0,1,1.238.266l-.3.6a8.408,8.408,0,0,0-1.132-.236,9.489,9.489,0,0,0-1.443-.116,3.658,3.658,0,0,0-1.254.187.659.659,0,0,0-.508.639.572.572,0,0,0,.156.438,1.212,1.212,0,0,0,.544.236q.386.09,1.283.222a12.826,12.826,0,0,1,1.737.316,1.778,1.778,0,0,1,.85.469,1.247,1.247,0,0,1,.272.865,1.141,1.141,0,0,1-.75,1.1,4.825,4.825,0,0,1-1.96.337,12.2,12.2,0,0,1-3.009-.4" transform="translate(854.686 -303.765)" fill="gray"/>
    </g>
  </g>
</svg>
